<svg width="30" height="19" viewBox="0 0 30 19" fill="none" xmlns="http://www.w3.org/2000/svg">
<path d="M29.7575 9.00102C26.6138 3.39339 21.1007 0 15 0C8.89925 0 3.37687 3.39339 0.261194 9.00102L0 9.42407L0.242537 9.85612C3.38619 15.4638 8.89925 18.8571 15 18.8571C21.1007 18.8571 26.6231 15.5088 29.7575 9.85612L30 9.42407L29.7575 9.00102ZM15 17.0119C9.74813 17.0119 4.92537 14.1856 2.12687 9.42407C4.92537 4.66253 9.74813 1.83621 15 1.83621C20.2519 1.83621 25.0187 4.67153 27.8638 9.42407C25.0187 14.1856 20.2425 17.0119 15 17.0119Z" fill="white"/>
<path d="M15.2705 1.47673C14.0057 1.48563 12.772 1.85601 11.7252 2.54108C10.6784 3.22615 9.86551 4.19518 9.38915 5.32578C8.91279 6.45638 8.79435 7.69784 9.04878 8.89336C9.30322 10.0889 9.91912 11.1848 10.8187 12.0428C11.7183 12.9007 12.8612 13.4822 14.103 13.7138C15.3449 13.9454 16.63 13.8166 17.7961 13.3439C18.9622 12.8711 19.957 12.0755 20.6547 11.0575C21.3525 10.0395 21.7219 8.84488 21.7164 7.62443C21.7128 6.81203 21.543 6.00831 21.2168 5.25933C20.8907 4.51036 20.4146 3.83085 19.8158 3.25974C19.217 2.68864 18.5072 2.23717 17.7273 1.9312C16.9473 1.62524 16.1125 1.4708 15.2705 1.47673ZM15.2705 12.0259C14.3771 12.017 13.5063 11.7536 12.7676 11.2688C12.0288 10.7839 11.4549 10.0992 11.1181 9.30072C10.7813 8.50221 10.6965 7.62547 10.8745 6.78062C11.0524 5.93577 11.485 5.16048 12.1181 4.55212C12.7511 3.94376 13.5564 3.52945 14.4327 3.36124C15.309 3.19303 16.2172 3.27841 17.0434 3.60666C17.8696 3.93491 18.5768 4.49139 19.0763 5.20621C19.5757 5.92104 19.8452 6.76233 19.8507 7.62443C19.8532 8.20463 19.7363 8.77954 19.5068 9.31582C19.2773 9.85209 18.9397 10.3391 18.5136 10.7485C18.0876 11.1579 17.5815 11.4817 17.0248 11.701C16.4681 11.9202 15.8718 12.0307 15.2705 12.0259Z" fill="white"/>
</svg>
