<svg width="18" height="15" viewBox="0 0 18 15" fill="none" xmlns="http://www.w3.org/2000/svg">
<path fill-rule="evenodd" clip-rule="evenodd" d="M5.6 0C6.34466 1.71663e-05 7.06602 0.259659 7.63988 0.734224C8.21374 1.20879 8.60419 1.86858 8.744 2.6H17.2V3.8H8.744C8.60411 4.53135 8.21363 5.19105 7.63978 5.66554C7.06592 6.14003 6.34461 6.39961 5.6 6.39961C4.85539 6.39961 4.13408 6.14003 3.56023 5.66554C2.98637 5.19105 2.59589 4.53135 2.456 3.8H0V2.6H2.456C2.59581 1.86858 2.98626 1.20879 3.56012 0.734224C4.13398 0.259659 4.85534 1.71663e-05 5.6 0V0ZM7.6 3.2C7.6 2.66957 7.38929 2.16086 7.01421 1.78579C6.63914 1.41071 6.13043 1.2 5.6 1.2C5.06957 1.2 4.56086 1.41071 4.18579 1.78579C3.81071 2.16086 3.6 2.66957 3.6 3.2C3.6 3.73043 3.81071 4.23914 4.18579 4.61421C4.56086 4.98929 5.06957 5.2 5.6 5.2C6.13043 5.2 6.63914 4.98929 7.01421 4.61421C7.38929 4.23914 7.6 3.73043 7.6 3.2ZM14.744 10.6C14.6041 9.86865 14.2136 9.20895 13.6398 8.73446C13.0659 8.25997 12.3446 8.00039 11.6 8.00039C10.8554 8.00039 10.1341 8.25997 9.56022 8.73446C8.98637 9.20895 8.59589 9.86865 8.456 10.6H0V11.8H8.456C8.59589 12.5314 8.98637 13.1911 9.56022 13.6655C10.1341 14.14 10.8554 14.3996 11.6 14.3996C12.3446 14.3996 13.0659 14.14 13.6398 13.6655C14.2136 13.1911 14.6041 12.5314 14.744 11.8H17.2V10.6H14.744ZM13.6 11.2C13.6 10.6696 13.3893 10.1609 13.0142 9.78579C12.6391 9.41071 12.1304 9.2 11.6 9.2C11.0696 9.2 10.5609 9.41071 10.1858 9.78579C9.81071 10.1609 9.6 10.6696 9.6 11.2C9.6 11.7304 9.81071 12.2391 10.1858 12.6142C10.5609 12.9893 11.0696 13.2 11.6 13.2C12.1304 13.2 12.6391 12.9893 13.0142 12.6142C13.3893 12.2391 13.6 11.7304 13.6 11.2Z" fill="#008C67"/>
</svg>
