<svg width="14" height="15" viewBox="0 0 14 15" fill="none" xmlns="http://www.w3.org/2000/svg">
<path d="M6.35191 0.734096C6.5759 0.143322 7.42357 0.143322 7.64826 0.734096L9.09719 4.74772C9.14774 4.87846 9.23675 4.9908 9.35247 5.06991C9.46819 5.14902 9.60519 5.19117 9.74536 5.1908H13.3061C13.9641 5.1908 14.2511 6.00976 13.7338 6.41084L11.1999 8.69064C11.0864 8.7779 11.0034 8.89887 10.963 9.03619C10.9225 9.17351 10.9265 9.32013 10.9745 9.45501L11.8999 13.3769C12.1253 14.0069 11.3959 14.548 10.8443 14.1602L7.40257 11.9763C7.2847 11.8935 7.14415 11.849 7.00008 11.849C6.85602 11.849 6.71547 11.8935 6.5976 11.9763L3.15586 14.1602C2.60498 14.548 1.87491 14.0062 2.1003 13.3769L3.02566 9.45501C3.07366 9.32013 3.07771 9.17351 3.03722 9.03619C2.99672 8.89887 2.91378 8.7779 2.80027 8.69064L0.266384 6.41084C-0.251593 6.00976 0.0367937 5.1908 0.693365 5.1908H4.25411C4.3943 5.19127 4.53134 5.14915 4.64708 5.07003C4.76282 4.99092 4.85181 4.87852 4.90228 4.74772L6.35121 0.734096H6.35191Z" fill="#FCF444"/>
</svg>
