<svg width="50" height="66" viewBox="0 0 50 66" fill="none" xmlns="http://www.w3.org/2000/svg">
<path d="M49.9405 18.2384C49.9405 17.8234 49.7619 17.4677 49.4643 17.2898L33.4524 1.34206C33.3929 1.28278 33.2738 1.22346 33.2143 1.16418C33.2143 1.16418 33.1548 1.16419 33.1548 1.10491C33.0357 1.04562 32.9762 1.04561 32.8572 0.986328C32.7976 0.986328 32.6786 0.986328 32.6191 0.986328H1.25002C0.59526 0.986328 0 1.51992 0 2.23134V63.8881C0 64.5403 0.535736 65.1331 1.25002 65.1331H48.75C49.4048 65.1331 50 64.5996 50 63.8881V18.4162C49.9405 18.2977 49.9405 18.2384 49.9405 18.2384ZM45.7143 16.9934H33.75V5.07703L45.7143 16.9934ZM2.4405 62.5839V3.35774H31.3095V18.1791C31.3095 18.8312 31.8452 19.4241 32.5595 19.4241H47.4405V62.5839H2.4405Z" fill="#008C67"/>
<path d="M17.6782 47.4075C17.4401 47.4075 17.1425 47.3482 16.9639 47.1704C16.6068 46.8739 16.3687 46.4589 16.4877 45.9847L17.7378 38.574L12.3211 33.2976C11.9639 33.0012 11.8449 32.4676 12.0234 32.0526C12.1425 31.6376 12.5592 31.2819 13.0354 31.2226L20.5353 30.1555L23.8687 23.3969C24.0473 22.9819 24.5234 22.6855 24.9996 22.6855C25.4758 22.6855 25.8925 22.9227 26.0711 23.3969L29.4044 30.1555L36.9044 31.2226C37.3806 31.2819 37.7377 31.6376 37.9163 32.0526C38.0353 32.4676 37.9163 33.0012 37.6187 33.2976L32.202 38.574L33.452 45.8068C33.5115 45.9254 33.5116 46.0439 33.5116 46.2218C33.5116 46.8739 32.9758 47.4668 32.2615 47.4668C32.083 47.4668 31.8449 47.4075 31.6663 47.3482L24.9996 43.8504L18.333 47.3482C18.0949 47.3482 17.9163 47.4075 17.6782 47.4075ZM24.9401 41.1233C25.1187 41.1233 25.3568 41.1826 25.5354 41.2418L30.5949 43.9097L29.6425 38.2776C29.583 37.8626 29.702 37.4476 29.9996 37.2104L34.1068 33.2383L28.452 32.4083C28.0354 32.349 27.6782 32.1119 27.4996 31.7562L24.9996 26.6576L22.4997 31.7562C22.3211 32.1119 21.9639 32.349 21.5473 32.4083L15.8925 33.2383L19.9996 37.2104C20.2973 37.5069 20.4163 37.9219 20.3568 38.2776L19.4044 43.9097L24.4639 41.2418C24.583 41.1826 24.7615 41.1233 24.9401 41.1233Z" fill="#008C67"/>
</svg>
