<svg width="55" height="65" viewBox="0 0 55 65" fill="none" xmlns="http://www.w3.org/2000/svg">
<path d="M38.8487 8.00592C38.299 8.00592 37.7993 8.45345 37.7993 9.05017C37.7993 9.59716 38.2491 10.0944 38.8487 10.0944H40.098C40.3978 10.0944 40.6477 9.99497 40.8476 9.79606C41.0474 9.59716 41.1474 9.34852 41.1474 9.05017V6.01687C41.1474 3.77919 39.8981 1.83987 38.0492 0.795619C38.0492 0.795619 37.9992 0.795619 37.9992 0.745893C37.8993 0.696167 37.8493 0.646441 37.7493 0.646441C37.6494 0.596714 37.5495 0.546988 37.4495 0.497262H37.3995C37.0497 0.348083 36.7 0.248631 36.3502 0.149179C36.2502 0.149179 36.1003 0.0994524 36.0004 0.0994524C35.9004 0.0994524 35.8505 0.0497262 35.7505 0.0497262C35.5506 0.0497262 35.3507 0 35.1509 0H5.99652C2.69843 0 0 2.68521 0 5.96714V57.384C0 59.4725 0.949431 61.3621 2.44856 62.6053C2.44856 62.6053 2.44858 62.6053 2.49855 62.6053C2.59849 62.655 2.69843 62.7545 2.7484 62.8042C2.84835 62.8539 2.89832 62.9534 2.99826 63.0031C3.04823 63.0031 3.04824 63.0528 3.09821 63.0528C3.24812 63.1523 3.39802 63.2517 3.54793 63.3512C3.74781 63.4506 3.9477 63.5501 4.14759 63.6495H4.19755C4.39743 63.749 4.54736 63.7987 4.74724 63.8484C4.94713 63.8982 5.14702 63.9479 5.3469 63.9976H5.39686C5.8466 64.0971 6.29633 64.1468 6.79604 64.1468H34.3014C38.0492 64.1468 41.0974 61.1135 41.0974 57.384V32.9685C41.0974 32.4215 40.6477 31.9242 40.048 31.9242C39.4984 31.9242 38.9986 32.3717 38.9986 32.9685V51.5661H1.94885V10.0944H19.0746C19.6243 10.0944 20.1239 9.64688 20.1239 9.05017C20.1239 8.50318 19.6742 8.00592 19.0746 8.00592H1.94885V6.01687C1.94885 3.82892 3.69785 2.0885 5.89657 2.0885H35.0509C35.2008 2.0885 35.3008 2.0885 35.4507 2.0885C35.5007 2.0885 35.5506 2.0885 35.6006 2.0885C35.7005 2.0885 35.7505 2.0885 35.8505 2.13823C36.2003 2.18795 36.5001 2.33713 36.7999 2.48631C36.8499 2.48631 36.8999 2.53604 36.9498 2.53604C38.1991 3.18248 38.9986 4.47536 38.9986 5.96714V7.95619H38.8487V8.00592ZM1.99884 53.7043H39.0486V57.4835C39.0486 60.0692 36.8999 62.2075 34.3014 62.2075H6.79604C6.44625 62.2075 6.14644 62.1577 5.84661 62.108H5.79662C5.64671 62.0583 5.54677 62.0583 5.39686 62.0086C5.24695 61.9588 5.14701 61.9091 4.9971 61.8594H4.94711C4.7972 61.8097 4.69726 61.7599 4.54735 61.6605C4.54735 61.6605 4.54736 61.6605 4.49739 61.6605C4.39745 61.6108 4.24753 61.5113 4.14759 61.4616C4.14759 61.4616 4.09763 61.4616 4.09763 61.4118C4.04766 61.3621 3.9477 61.3124 3.89773 61.2627C3.84776 61.2129 3.7978 61.1632 3.74782 61.1135C2.69843 60.2681 2.0488 58.9255 2.0488 57.4835V53.7043H1.99884Z" fill="#008C67"/>
<path d="M13.6773 29.0901C13.6773 27.1011 13.9271 25.8082 14.4768 25.2115C15.0265 24.6148 15.876 24.3164 16.9753 24.3164C19.0242 24.3164 20.0236 25.3607 20.0236 27.4989C20.0236 28.2448 19.8737 29.0901 19.6238 29.9852C19.3739 30.8803 18.8742 32.024 18.2246 33.3666L16.4257 36.9966H19.6238V38.7371H13.3774L15.876 33.8141C15.926 33.7644 15.9759 33.6152 16.0759 33.4163C16.1758 33.2174 16.2258 33.0683 16.2757 33.0185C16.9254 31.7256 17.3751 30.6814 17.6749 29.8858C17.9248 29.0901 18.0747 28.3442 18.0747 27.6481C18.0747 27.1011 17.9748 26.7033 17.7749 26.4049C17.575 26.1066 17.2752 25.9574 16.9254 25.9574C16.3257 25.9574 15.9759 26.206 15.826 26.753C15.6761 27.3 15.6261 28.0459 15.5762 29.0404H13.6773V29.0901Z" fill="#008C67"/>
<path d="M28.4687 34.8087H27.6692V38.7371H25.7703V34.8087H22.0225V33.0185L25.9202 24.3164H27.6692V33.0683H28.4687V34.8087ZM25.8203 33.118V27.9962H25.7703L23.5216 33.0683H25.8203V33.118Z" fill="#008C67"/>
<path d="M40.9547 30.276C40.405 30.276 39.9553 29.8285 39.9053 29.2815C39.6055 23.364 33.6589 22.817 33.609 22.817C33.0593 22.817 32.5596 22.3695 32.5596 21.7728C32.5596 21.2258 33.0093 20.7285 33.609 20.7285C35.1581 20.7285 41.6043 22.2203 41.9541 29.1323C42.0041 29.6793 41.5544 30.1765 40.9547 30.2263C41.0047 30.276 40.9547 30.276 40.9547 30.276Z" fill="#008C67"/>
<path d="M46.5514 31.1716C46.0017 31.1716 45.5519 30.724 45.502 30.177C44.9023 18.1433 32.6094 16.9498 32.4595 16.9498C31.9099 16.9498 31.4102 16.5023 31.4102 15.9056C31.4102 15.3586 31.8599 14.8613 32.4595 14.8613C35.3079 14.8613 46.9011 17.5466 47.6007 30.0776C47.6507 30.6246 47.201 31.1218 46.6013 31.1716C46.6013 31.1716 46.6013 31.1716 46.5514 31.1716Z" fill="#008C67"/>
<path d="M53.9469 33.3082C53.3972 33.3082 52.9475 32.8607 52.8975 32.3137C51.8481 13.2686 33.6587 9.24084 30.1607 9.24084C29.6111 9.24084 29.1113 8.7933 29.1113 8.19659C29.1113 7.59988 29.5611 7.15234 30.1607 7.15234C30.4106 7.15234 53.747 8.99221 54.9963 32.1645C55.0463 32.7115 54.5965 33.2088 53.9969 33.2585C53.9469 33.3082 53.9469 33.3082 53.9469 33.3082Z" fill="#008C67"/>
<path d="M24.9711 59.0757H16.0263C15.4766 59.0757 15.0269 58.628 15.0269 58.0808C15.0269 57.5336 15.4766 57.0859 16.0263 57.0859H24.9711C25.5208 57.0859 25.9705 57.5336 25.9705 58.0808C25.9705 58.628 25.5208 59.0757 24.9711 59.0757Z" fill="#008C67"/>
</svg>
