<svg width="74" height="66" viewBox="0 0 74 66" fill="none" xmlns="http://www.w3.org/2000/svg">
<path d="M17.5823 6.69336L19.1428 6.93116L18.9627 7.82292C20.7033 8.23907 21.7236 9.07137 22.0237 10.2604L19.803 10.4982C19.5029 9.66587 18.9027 9.19027 18.0624 9.01192C17.6423 8.95247 17.2822 8.95247 16.9821 9.07137C16.682 9.19027 16.5019 9.36862 16.5019 9.60642C16.4419 9.84423 16.5619 10.082 16.802 10.2604C17.0421 10.4387 17.5823 10.6765 18.3625 11.0332C19.2628 11.3899 19.923 11.7466 20.4632 11.9844C20.9433 12.2817 21.3635 12.5789 21.6035 12.9951C21.8436 13.4112 21.9637 13.8274 21.9036 14.2435C21.7836 14.9569 21.3635 15.4326 20.6432 15.7893C19.923 16.146 18.9627 16.2649 17.7023 16.146L17.5222 17.335L15.9617 17.0972L16.1418 15.9082C14.1011 15.4326 12.9608 14.4813 12.7207 13.0545H15.1815C15.2415 13.9463 15.9017 14.4813 17.1621 14.7191C17.7623 14.838 18.1825 14.7786 18.4825 14.6597C18.7826 14.5408 18.9627 14.303 19.0227 14.0652C19.0827 13.7679 18.9627 13.5896 18.7226 13.4112C18.4825 13.2329 17.8824 12.9356 16.9821 12.5789C16.1418 12.2222 15.5416 11.925 15.0615 11.6872C14.5813 11.4494 14.2812 11.0927 14.0411 10.736C13.801 10.3793 13.681 9.96313 13.801 9.48752C13.9211 8.89302 14.2812 8.41742 14.8814 8.06072C15.4816 7.70401 16.3819 7.52566 17.5823 7.64456V6.69336Z" fill="#008C67"/>
<path d="M19.5027 1.34303C18.1222 1.10523 16.6818 0.986328 15.3014 0.986328C7.67896 0.986328 1.79711 4.49389 0.89683 9.54716L0.116585 14.2437C-0.963755 20.486 5.5783 26.5499 15.0013 28.1551C16.3817 28.3929 17.8222 28.5118 19.2026 28.5118C26.825 28.5118 32.7669 25.0042 33.6071 19.9509L34.3874 15.2544C35.4077 9.13101 28.7456 2.88874 19.5027 1.34303ZM15.3014 3.48324C16.5618 3.48324 17.8222 3.60214 19.0825 3.78049C26.825 5.08839 32.7068 10.0822 31.9266 14.7788C31.8066 15.4327 31.5665 16.0272 31.2064 16.6217C30.9663 16.9784 30.7262 17.3351 30.4261 17.6324C28.3855 19.8915 24.4242 21.3183 19.9228 21.3183C18.6624 21.3183 17.402 21.1994 16.1416 21.0211C9.65959 19.8915 4.25789 16.1461 3.41762 11.9846C3.29759 11.3307 3.23757 10.6767 3.3576 10.0228C4.01781 6.1585 8.93936 3.48324 15.3014 3.48324ZM19.2026 26.0149C17.9422 26.0149 16.6818 25.896 15.4214 25.7176C8.33917 24.5286 2.81743 20.2482 2.51734 15.9678C2.57736 16.0272 2.57736 16.0867 2.63738 16.0867C2.6974 16.1461 2.75742 16.265 2.81743 16.3245C2.93747 16.5028 3.11753 16.6812 3.23757 16.8595C3.29759 16.919 3.3576 17.0379 3.41762 17.0973C3.59768 17.3351 3.83776 17.5729 4.07783 17.8107L4.13785 17.8702C4.37793 18.108 4.618 18.3458 4.91809 18.5836C4.97811 18.643 5.09815 18.7025 5.15817 18.7619C5.33823 18.9403 5.5783 19.1186 5.75836 19.2375C5.8784 19.297 5.93842 19.3564 6.05845 19.4753C6.29853 19.6537 6.5386 19.832 6.77868 19.9509C6.8387 20.0104 6.89872 20.0104 6.95874 20.0698C7.25883 20.2482 7.61894 20.486 7.91904 20.6644C7.97906 20.7238 8.0991 20.7833 8.15911 20.7833C8.39919 20.9022 8.69928 21.0805 8.93936 21.1994C9.0594 21.2589 9.17943 21.3183 9.29947 21.3778C9.53955 21.4967 9.83964 21.6156 10.1397 21.7345C10.2598 21.7939 10.3198 21.7939 10.4398 21.8534C10.7999 22.0317 11.2201 22.1506 11.5802 22.2695C11.6402 22.2695 11.7002 22.329 11.8203 22.329C12.1204 22.4479 12.4805 22.5668 12.7806 22.6262C12.9006 22.6857 13.0206 22.6857 13.2007 22.7451C13.5008 22.8046 13.8009 22.9235 14.101 22.9829C14.221 22.9829 14.3411 23.0424 14.4611 23.0424C14.8812 23.1613 15.3014 23.2207 15.7215 23.2802C17.1019 23.518 18.5424 23.6369 19.9228 23.6369C20.403 23.6369 20.8831 23.6369 21.3633 23.5774C21.4833 23.5774 21.6033 23.5774 21.7234 23.5774C22.0835 23.5774 22.5036 23.518 22.8637 23.4585C22.9238 23.4585 23.0438 23.4585 23.1038 23.3991C23.5239 23.3396 24.0041 23.2802 24.4242 23.1613C24.5443 23.1613 24.6043 23.1018 24.7243 23.1018C25.0844 23.0424 25.3845 22.9235 25.7446 22.864C25.8647 22.864 25.9247 22.8046 26.0447 22.8046C26.4649 22.6857 26.825 22.5668 27.2451 22.3884C27.3051 22.3884 27.3652 22.329 27.4252 22.329C27.7253 22.2101 28.0854 22.0912 28.3855 21.9128C28.5055 21.8534 28.5655 21.7939 28.6856 21.7939C29.0457 21.6156 29.3458 21.4372 29.6459 21.2589C29.6459 21.2589 29.7059 21.2589 29.7059 21.1994C30.006 21.0211 30.3661 20.7833 30.6062 20.6049C30.6662 20.6049 30.6662 20.5455 30.7262 20.5455C29.4658 23.8747 24.9044 26.0149 19.2026 26.0149Z" fill="#008C67"/>
<path d="M25.6244 42.8984L27.0649 43.6118L26.6448 44.4442C28.2053 45.3359 28.9255 46.406 28.9255 47.6545L26.7048 47.2383C26.6448 46.3466 26.2246 45.7521 25.4444 45.3359C25.0243 45.1576 24.6641 45.0387 24.364 45.0981C24.0639 45.1576 23.8239 45.2765 23.7038 45.5143C23.5838 45.7521 23.6438 45.9899 23.8239 46.2277C24.0039 46.4655 24.4241 46.8816 25.0843 47.4167C25.8045 48.0112 26.4047 48.5463 26.8248 48.903C27.2449 49.3191 27.485 49.7353 27.6051 50.1514C27.7251 50.5676 27.7251 51.0432 27.485 51.4593C27.1849 52.1133 26.6448 52.47 25.8045 52.5889C25.0243 52.7078 24.0039 52.5889 22.8636 52.1133L22.3234 53.1834L20.883 52.47L21.4231 51.3999C19.6226 50.3892 18.7823 49.1408 18.9623 47.7139L21.3631 48.4274C21.183 49.3191 21.6632 50.0325 22.8036 50.5676C23.3437 50.8054 23.7639 50.9243 24.124 50.8648C24.4841 50.8054 24.6641 50.6865 24.7842 50.4487C24.9042 50.2109 24.8442 49.9731 24.6641 49.7353C24.4841 49.4975 24.0039 49.0813 23.2237 48.4274C22.5035 47.8923 22.0233 47.4167 21.6632 47.06C21.3031 46.7033 21.063 46.2871 20.943 45.8115C20.8229 45.3954 20.8229 44.9792 21.063 44.5631C21.3031 44.028 21.7832 43.6713 22.5035 43.4929C23.2237 43.3146 24.124 43.4335 25.2043 43.8497L25.6244 42.8984Z" fill="#008C67"/>
<path d="M38.2283 46.2283C36.2477 43.0774 32.9466 40.2832 28.9854 38.3214C25.6844 36.7757 22.2033 35.9434 18.9622 35.9434C14.1007 35.9434 10.3795 37.7863 8.75904 41.0561L6.65838 45.3365C3.89751 50.9843 8.45894 58.5939 16.9816 62.696C20.2827 64.3011 23.7037 65.1334 26.9448 65.1334C31.8663 65.1334 35.5275 63.2905 37.148 60.0207L39.2486 55.7403C40.6891 52.9461 40.2689 49.5575 38.2283 46.2283ZM18.9622 38.3808C21.8432 38.3808 24.9041 39.1537 27.845 40.521C31.4462 42.2451 34.3271 44.6825 36.0676 47.4767C37.6881 50.0925 38.0482 52.6489 37.0879 54.6107C36.9679 54.7891 36.8479 55.0269 36.7278 55.2052C36.6678 55.2647 36.6078 55.3836 36.5478 55.5025C36.3677 55.7403 36.1276 56.0375 35.8876 56.2753C34.3871 57.6427 31.9863 58.4155 29.1054 58.4155C26.2245 58.4155 23.1636 57.6427 20.2226 56.2753C14.2208 53.4217 10.1395 48.309 10.4996 44.088C10.4996 43.7313 10.5596 43.4341 10.6796 43.0774C10.7397 42.8396 10.8597 42.5423 10.9797 42.3045C10.9797 42.2451 11.0398 42.1856 11.0398 42.1262C12.1801 39.7482 15.061 38.3808 18.9622 38.3808ZM27.0048 62.696C24.1239 62.696 21.0629 61.9231 18.122 60.5558C11.6399 57.4643 7.61868 51.8166 8.51896 47.5956C8.51896 47.6551 8.57898 47.7145 8.57898 47.774C8.639 47.8929 8.639 47.9523 8.69902 48.0712C8.75904 48.309 8.87907 48.4874 8.93909 48.7252C8.99911 48.8441 8.99911 48.9035 9.05913 49.0224C9.17917 49.3197 9.35923 49.6169 9.47926 49.8547V49.9142C9.65932 50.2114 9.83938 50.5087 10.0194 50.8059C10.0795 50.8654 10.1395 50.9843 10.1995 51.0437C10.3195 51.2815 10.4996 51.4599 10.6796 51.6977C10.7397 51.8166 10.7997 51.876 10.8597 51.9949C11.0398 52.2327 11.2198 52.4705 11.3999 52.7083C11.4599 52.7678 11.5199 52.8272 11.5199 52.8867C11.76 53.1839 12.0001 53.4217 12.3001 53.719C12.3602 53.7784 12.4202 53.8379 12.4802 53.8973C12.7203 54.1351 12.9003 54.3135 13.1404 54.4918C13.2605 54.5513 13.3205 54.6702 13.4405 54.7296C13.6806 54.908 13.9207 55.1458 14.1007 55.3241C14.1607 55.3836 14.2808 55.443 14.3408 55.5025C14.6409 55.7403 15.001 55.9781 15.3011 56.2159C15.3611 56.2753 15.4211 56.2753 15.4811 56.3348C15.7812 56.5131 16.0813 56.7509 16.3214 56.9293C16.4415 56.9887 16.5615 57.0482 16.6815 57.1671C16.9216 57.3454 17.2217 57.4643 17.4618 57.6427C17.5818 57.7021 17.7018 57.7616 17.8219 57.821C18.182 57.9994 18.6021 58.2372 18.9622 58.4155C21.8432 59.7829 24.8441 60.6152 27.725 60.7936C28.1451 60.7936 28.5653 60.853 28.9254 60.853C29.4055 60.853 29.8257 60.853 30.2458 60.7936C30.3658 60.7936 30.5459 60.7341 30.6659 60.7341C30.966 60.6747 31.2661 60.6747 31.5062 60.6152C31.6862 60.6152 31.8063 60.5558 31.9863 60.4963C32.2264 60.4369 32.4665 60.3774 32.7066 60.318C32.8866 60.2585 33.0067 60.1991 33.1867 60.1991C33.4268 60.1396 33.6068 60.0802 33.8469 59.9613C33.9069 59.9613 33.967 59.9018 34.027 59.9018C32.8866 61.7448 30.3058 62.696 27.0048 62.696Z" fill="#008C67"/>
<path d="M54.7945 26.0162L56.355 25.8379L56.4751 26.7296C58.2756 26.6702 59.476 27.1458 60.1362 28.1565L58.0356 28.9888C57.4954 28.2754 56.8352 27.9781 55.9349 28.097C55.5148 28.1565 55.1546 28.2754 54.9146 28.5132C54.6745 28.6915 54.5545 28.9293 54.6145 29.1671C54.6745 29.4049 54.7945 29.5833 55.0946 29.7022C55.3947 29.8211 55.9349 29.8805 56.8352 29.9994C57.7955 30.1183 58.5757 30.1778 59.1159 30.3561C59.6561 30.475 60.1362 30.7128 60.4963 31.0101C60.8564 31.3073 61.0365 31.664 61.0965 32.1396C61.1565 32.853 60.9165 33.4475 60.3163 33.9826C59.7161 34.5176 58.8158 34.9338 57.6154 35.1716L57.7955 36.3606L56.235 36.5389L56.0549 35.3499C53.9543 35.4688 52.6338 34.8743 51.9736 33.5664L54.3744 32.853C54.7345 33.6853 55.5148 34.042 56.7752 33.8637C57.3753 33.8042 57.7955 33.6259 58.0356 33.4475C58.2756 33.2097 58.3957 32.9719 58.3957 32.7341C58.3357 32.4369 58.2156 32.2585 57.9155 32.1991C57.6154 32.0802 56.9552 32.0207 55.9949 31.9018C55.0946 31.8424 54.4344 31.7235 53.8942 31.6046C53.3541 31.4857 52.9339 31.2479 52.6338 30.9506C52.2737 30.6534 52.0937 30.2967 52.0337 29.8211C51.9736 29.2266 52.1537 28.6915 52.6338 28.1565C53.114 27.6214 53.9543 27.2052 55.0946 26.9674L54.7945 26.0162Z" fill="#008C67"/>
<path d="M73.94 34.1008L73.3398 29.3448C72.6796 24.0537 66.3176 20.1895 58.3351 20.1895C57.2548 20.1895 56.1744 20.2489 55.0941 20.3678C50.7127 20.9029 46.6914 22.5675 43.8105 24.9455C40.7495 27.4424 39.3091 30.5338 39.7292 33.6252L40.3294 38.3812C40.9896 43.6723 47.3516 47.5366 55.3341 47.5366C56.4145 47.5366 57.4948 47.4771 58.5752 47.3582C67.8181 46.1098 74.7203 40.1647 73.94 34.1008ZM45.371 26.8479C47.8918 24.7671 51.4329 23.3403 55.3942 22.8647C56.3545 22.7458 57.3748 22.6864 58.3351 22.6864C65.1172 22.6864 70.3989 25.6589 70.8791 29.7015C70.9391 30.3554 70.9391 31.0094 70.759 31.6633C69.7387 35.706 64.217 39.273 57.6149 40.1053C56.6546 40.2242 55.6342 40.2836 54.6739 40.2836C49.1522 40.2836 44.4707 38.2623 42.7302 35.1709C42.5501 34.8737 42.4301 34.5764 42.31 34.2792C42.19 33.9819 42.13 33.6252 42.07 33.328C41.8299 31.0688 42.9702 28.7503 45.371 26.8479ZM58.2151 44.8613C57.2548 44.9802 56.2344 45.0397 55.2741 45.0397C49.2122 45.0397 44.2907 42.6616 43.0303 39.2135C43.0903 39.273 43.1503 39.273 43.1503 39.3324C43.3904 39.5108 43.6905 39.7486 43.9906 39.9269C44.0506 39.9864 44.1106 40.0458 44.1706 40.0458C44.5307 40.2836 44.8909 40.462 45.251 40.6403C45.311 40.6998 45.431 40.6998 45.491 40.7592C45.7911 40.9376 46.1512 41.0565 46.4513 41.1754C46.5714 41.2348 46.6314 41.2348 46.7514 41.2943C47.1716 41.4726 47.5917 41.5915 48.0118 41.7699C48.0719 41.7699 48.1919 41.8293 48.2519 41.8293C48.612 41.9482 49.0322 42.0671 49.3923 42.1266C49.5123 42.1266 49.6323 42.186 49.7524 42.186C50.2325 42.3049 50.7127 42.3644 51.1928 42.4238C51.2529 42.4238 51.3129 42.4238 51.3729 42.4238C51.793 42.4833 52.2732 42.5427 52.6933 42.5427C52.8134 42.5427 52.9334 42.5427 53.1134 42.5427C53.5936 42.6022 54.1338 42.6022 54.6739 42.6022C55.7543 42.6022 56.8346 42.5427 57.915 42.4238C58.3351 42.3644 58.7552 42.3049 59.1754 42.2455C59.2954 42.2455 59.4154 42.186 59.5355 42.186C59.8356 42.1266 60.1357 42.0671 60.4358 42.0077C60.5558 41.9482 60.6758 41.9482 60.8559 41.8888C61.216 41.8293 61.5161 41.7104 61.8762 41.5915C61.9362 41.5915 61.9963 41.5321 62.1163 41.5321C62.5364 41.4132 62.8965 41.2943 63.2567 41.1754C63.3767 41.1159 63.4367 41.1159 63.5568 41.0565C63.8568 40.9376 64.0969 40.8187 64.397 40.6998C64.5171 40.6403 64.6371 40.5809 64.7571 40.5214C65.0572 40.4025 65.2973 40.2836 65.5374 40.1647C65.6574 40.1053 65.7174 40.1053 65.8375 40.0458C66.1976 39.8675 66.4977 39.6891 66.8578 39.5108C66.9178 39.4513 66.9778 39.4513 67.0378 39.3919C67.2779 39.2135 67.518 39.0946 67.7581 38.9163C67.8781 38.8568 67.9381 38.7974 68.0582 38.7379C68.2983 38.5596 68.4783 38.4407 68.7184 38.2623C68.7784 38.2029 68.8984 38.1434 68.9585 38.084C69.2586 37.8462 69.4986 37.6678 69.7387 37.43L69.7987 37.3706C70.0388 37.1328 70.2789 36.9544 70.4589 36.7166C70.519 36.6572 70.579 36.5383 70.639 36.4788C70.819 36.3005 70.9391 36.1221 71.1191 35.9438C71.1792 35.8843 71.2392 35.7654 71.2992 35.706C71.3592 35.6465 71.3592 35.5871 71.4192 35.5871C71.0591 39.8675 65.3573 43.9695 58.2151 44.8613Z" fill="#008C67"/>
</svg>
