<svg width="82" height="62" viewBox="0 0 82 62" fill="none" xmlns="http://www.w3.org/2000/svg">
<mask id="path-1-inside-1_133_896" fill="white">
<path d="M77.0787 25.6607L70.8102 15.3472H71.2069C71.6036 15.3472 72.0004 15.5816 72.2385 15.8942L75.4917 20.7384C75.8091 21.2072 76.3645 21.4416 76.8406 21.4416C77.158 21.4416 77.4754 21.3634 77.7135 21.2072C78.507 20.7384 78.6656 19.7227 78.1896 18.9413L74.9363 14.0971C74.0635 12.847 72.7145 12.0657 71.1276 12.0657H66.208H52.8776V6.24661C52.8776 3.3557 50.4971 0.933594 47.4819 0.933594H8.2521C5.31623 0.933594 2.8565 3.27757 2.8565 6.24661V37.3025C1.1902 37.615 0 39.0214 0 40.6622V49.2568C0 51.1319 1.58688 52.6946 3.49123 52.6946H11.7276C12.5211 57.4607 16.7266 61.1329 21.8049 61.1329C26.8831 61.1329 31.0885 57.4607 31.882 52.6946H55.7341C56.5276 57.4607 60.7331 61.1329 65.8113 61.1329C70.8896 61.1329 75.095 57.4607 75.8884 52.6946H80.3319C81.2047 52.6946 81.9982 51.9914 81.9982 51.0538V40.1152C82.0775 35.271 79.5384 29.333 77.0787 25.6607ZM6.34783 6.32474C6.34783 5.15276 7.29998 4.29329 8.41085 4.29329H47.6406C48.8309 4.29329 49.7037 5.23089 49.7037 6.32474V13.7846V37.3025H6.2684V6.32474H6.34783ZM21.8842 57.9295C18.0755 57.9295 14.9809 54.8823 14.9809 51.1319C14.9809 47.3816 18.0755 44.3344 21.8842 44.3344C25.6929 44.3344 28.7874 47.3816 28.7874 51.1319C28.8668 54.8823 25.7722 57.9295 21.8842 57.9295ZM65.8906 57.9295C62.0819 57.9295 58.9873 54.8823 58.9873 51.1319C58.9873 47.3816 62.0819 44.3344 65.8906 44.3344C69.6993 44.3344 72.7939 47.3816 72.7939 51.1319C72.7939 54.8823 69.6993 57.9295 65.8906 57.9295ZM78.7449 49.4911H75.9678C75.9678 49.413 75.9678 49.3349 75.8884 49.2568C75.8884 49.1005 75.8091 49.0224 75.8091 48.8661C75.7298 48.7098 75.7297 48.4754 75.6504 48.3191C75.6504 48.1629 75.571 48.0848 75.571 47.9285C75.4917 47.7722 75.4124 47.5378 75.4124 47.3816C75.333 47.3034 75.333 47.1472 75.2536 47.069C75.1743 46.9128 75.095 46.6784 75.0156 46.5221C74.9363 46.444 74.9362 46.2877 74.8569 46.2096C74.7775 46.0533 74.6189 45.8189 74.5396 45.6627C74.4602 45.5845 74.4602 45.5064 74.3808 45.4283C74.2221 45.1939 73.9841 44.9594 73.8254 44.725C73.6667 44.4907 73.4286 44.2563 73.1906 44.1C73.1113 44.0219 73.032 43.9437 72.9526 43.8656C72.7939 43.7093 72.6351 43.5531 72.4764 43.4749C72.3971 43.3968 72.3178 43.3187 72.1591 43.2405C72.0004 43.1624 71.8417 43.0061 71.683 42.928C71.6036 42.8499 71.445 42.7718 71.3657 42.6936C71.207 42.6155 71.0482 42.5373 70.8895 42.3811C70.8101 42.3029 70.6515 42.2248 70.5722 42.2248C70.4135 42.1467 70.2547 42.0685 70.096 41.9904C69.9373 41.9123 69.858 41.9123 69.6993 41.8342C69.5406 41.756 69.3819 41.6779 69.1439 41.6779C68.9852 41.5998 68.9058 41.5998 68.7471 41.5216C68.5884 41.4435 68.3504 41.4435 68.1917 41.3654C68.033 41.3654 67.9537 41.2872 67.795 41.2872C67.557 41.2091 67.3982 41.2091 67.1602 41.2091C67.0808 41.2091 66.9221 41.2091 66.8428 41.131C66.5254 41.131 66.2081 41.0528 65.8113 41.0528C65.4146 41.0528 65.1765 41.0528 64.7797 41.131C64.7004 41.131 64.5417 41.131 64.4623 41.2091C64.2243 41.2091 64.0657 41.2872 63.8276 41.2872C63.6689 41.2872 63.5896 41.3654 63.4309 41.3654C63.2722 41.4435 63.0341 41.4435 62.8754 41.5216C62.7167 41.5216 62.6373 41.5998 62.4786 41.6779C62.3199 41.756 62.1613 41.8342 61.9232 41.8342C61.7645 41.9123 61.6852 41.9123 61.5265 41.9904C61.3678 42.0685 61.2091 42.1467 61.0504 42.2248C60.8917 42.303 60.8124 42.3811 60.733 42.3811C60.5743 42.4592 60.4157 42.5374 60.257 42.6936C60.1776 42.7718 60.0189 42.8499 59.9395 42.928C59.7809 43.0061 59.6222 43.1624 59.4635 43.2405C59.3841 43.3187 59.2254 43.3968 59.1461 43.4749C58.9874 43.6312 58.8287 43.7093 58.67 43.8656C58.5907 43.9437 58.5113 44.0219 58.4319 44.1C58.1939 44.3344 58.0352 44.4907 57.8765 44.725C57.8765 44.725 57.8764 44.7251 57.7971 44.8032C57.6384 45.0376 57.4004 45.272 57.2417 45.5064C57.1624 45.5845 57.1624 45.6627 57.083 45.7408C57.0037 45.8971 56.845 46.1314 56.7656 46.2877C56.6863 46.3658 56.6862 46.5221 56.6069 46.6003C56.5275 46.7565 56.4482 46.9128 56.3689 47.1472C56.2896 47.2253 56.2895 47.3816 56.2101 47.4597C56.1308 47.616 56.0515 47.7722 56.0515 48.0066C55.9721 48.1629 55.9722 48.241 55.9722 48.3973C55.8928 48.5536 55.8928 48.788 55.8134 48.9442C55.8134 49.1005 55.7341 49.1786 55.7341 49.3349C55.7341 49.413 55.7341 49.4911 55.6547 49.5693H31.8027C31.8027 49.4911 31.8027 49.413 31.7233 49.3349C31.7233 49.1786 31.6439 49.1005 31.6439 48.9442C31.5646 48.788 31.5646 48.5536 31.4853 48.3973C31.4853 48.241 31.4059 48.1629 31.4059 48.0066C31.3266 47.8504 31.2472 47.616 31.2472 47.4597C31.1678 47.3816 31.1679 47.2253 31.0885 47.1472C31.0092 46.9909 30.9298 46.8346 30.8504 46.6003C30.7711 46.5221 30.7711 46.3658 30.6918 46.2877C30.6124 46.1314 30.4537 45.8971 30.3744 45.7408C30.295 45.6627 30.2951 45.5845 30.2157 45.5064C30.057 45.272 29.8189 45.0376 29.6602 44.8032C29.6602 44.8032 29.6602 44.8032 29.5809 44.725C29.4222 44.4907 29.1842 44.2563 29.0255 44.1C28.9461 44.0219 28.8668 43.9437 28.7874 43.8656C28.6287 43.7093 28.47 43.5531 28.3113 43.4749C28.232 43.3968 28.1526 43.3187 27.9939 43.2405C27.8352 43.1624 27.6766 43.0061 27.5179 42.928C27.4385 42.8499 27.2798 42.7718 27.2004 42.6936C27.0418 42.6155 26.8831 42.5373 26.7244 42.3811C26.645 42.3029 26.4863 42.2248 26.407 42.2248C26.2483 42.1467 26.0896 42.0685 25.9309 41.9904C25.7722 41.9123 25.6929 41.9123 25.5342 41.8342C25.3755 41.756 25.2168 41.6779 24.9788 41.6779C24.8201 41.5998 24.7407 41.5998 24.582 41.5216C24.4233 41.4435 24.1852 41.4435 24.0265 41.3654C23.8678 41.3654 23.7885 41.2872 23.6298 41.2872C23.3918 41.2091 23.2331 41.2091 22.9951 41.2091C22.9157 41.2091 22.757 41.2091 22.6777 41.131C22.3603 41.131 22.0428 41.0528 21.6461 41.0528C21.3287 41.0528 21.0114 41.0528 20.6146 41.131C20.5353 41.131 20.3766 41.131 20.2972 41.2091C20.0592 41.2091 19.9004 41.2872 19.6624 41.2872C19.5037 41.2872 19.4244 41.3654 19.2657 41.3654C19.107 41.4435 18.869 41.4435 18.7103 41.5216C18.5516 41.5216 18.4722 41.5998 18.3135 41.6779C18.1548 41.756 17.9961 41.8342 17.758 41.8342C17.5993 41.9123 17.52 41.9123 17.3613 41.9904C17.2026 42.0685 17.0439 42.1467 16.8852 42.2248C16.7265 42.303 16.6472 42.3811 16.5678 42.3811C16.4091 42.4592 16.2505 42.5374 16.0918 42.6936C16.0124 42.7718 15.8537 42.8499 15.7743 42.928C15.6156 43.0061 15.457 43.1624 15.2983 43.2405C15.2189 43.3187 15.0602 43.3968 14.9809 43.4749C14.8222 43.6312 14.6635 43.7093 14.5048 43.8656C14.4255 43.9437 14.3462 44.0219 14.2668 44.1C14.0288 44.3344 13.87 44.4907 13.7113 44.725C13.7113 44.725 13.7113 44.7251 13.632 44.8032C13.4733 45.0376 13.2353 45.272 13.0766 45.5064C12.9972 45.5845 12.9972 45.6627 12.9178 45.7408C12.8385 45.8971 12.6798 46.1314 12.6004 46.2877C12.5211 46.3658 12.5211 46.5221 12.4418 46.6003C12.3624 46.7565 12.283 46.9128 12.2037 47.1472C12.1243 47.2253 12.1244 47.3816 12.045 47.4597C11.9657 47.616 11.8864 47.7722 11.8864 48.0066C11.807 48.1629 11.807 48.241 11.807 48.3973C11.7276 48.5536 11.7276 48.788 11.6483 48.9442C11.6483 49.1005 11.569 49.1786 11.569 49.3349C11.569 49.413 11.569 49.4911 11.4896 49.5693H3.25324C3.09455 49.5693 3.01516 49.4911 3.01516 49.3349V40.7403C3.01516 40.584 3.09455 40.5059 3.25324 40.5059H4.28471H50.9732C51.846 40.5059 52.6395 39.8027 52.6395 38.8651V15.3472H54.3852V28.3172C54.3852 29.1767 55.0993 29.958 56.0515 29.958C57.0037 29.958 57.7178 29.2548 57.7178 28.3172V15.3472H65.97C66.3667 15.3472 66.7634 15.5816 66.9221 15.816L73.9047 27.3797C74.1428 27.7703 74.3809 28.161 74.6189 28.5516L70.1754 30.1924C67.4776 31.2081 64.621 31.7551 61.6852 31.7551H56.0515C55.1787 31.7551 54.3852 32.4582 54.3852 33.3958C54.3852 34.3334 55.0993 35.0366 56.0515 35.0366H61.6852C65.0178 35.0366 68.2711 34.4116 71.3657 33.3177L76.1265 31.5207C77.4754 34.5678 78.3482 37.7713 78.3482 40.2715V49.4911H78.7449Z"/>
</mask>
<path d="M77.0787 25.6607L70.8102 15.3472H71.2069C71.6036 15.3472 72.0004 15.5816 72.2385 15.8942L75.4917 20.7384C75.8091 21.2072 76.3645 21.4416 76.8406 21.4416C77.158 21.4416 77.4754 21.3634 77.7135 21.2072C78.507 20.7384 78.6656 19.7227 78.1896 18.9413L74.9363 14.0971C74.0635 12.847 72.7145 12.0657 71.1276 12.0657H66.208H52.8776V6.24661C52.8776 3.3557 50.4971 0.933594 47.4819 0.933594H8.2521C5.31623 0.933594 2.8565 3.27757 2.8565 6.24661V37.3025C1.1902 37.615 0 39.0214 0 40.6622V49.2568C0 51.1319 1.58688 52.6946 3.49123 52.6946H11.7276C12.5211 57.4607 16.7266 61.1329 21.8049 61.1329C26.8831 61.1329 31.0885 57.4607 31.882 52.6946H55.7341C56.5276 57.4607 60.7331 61.1329 65.8113 61.1329C70.8896 61.1329 75.095 57.4607 75.8884 52.6946H80.3319C81.2047 52.6946 81.9982 51.9914 81.9982 51.0538V40.1152C82.0775 35.271 79.5384 29.333 77.0787 25.6607ZM6.34783 6.32474C6.34783 5.15276 7.29998 4.29329 8.41085 4.29329H47.6406C48.8309 4.29329 49.7037 5.23089 49.7037 6.32474V13.7846V37.3025H6.2684V6.32474H6.34783ZM21.8842 57.9295C18.0755 57.9295 14.9809 54.8823 14.9809 51.1319C14.9809 47.3816 18.0755 44.3344 21.8842 44.3344C25.6929 44.3344 28.7874 47.3816 28.7874 51.1319C28.8668 54.8823 25.7722 57.9295 21.8842 57.9295ZM65.8906 57.9295C62.0819 57.9295 58.9873 54.8823 58.9873 51.1319C58.9873 47.3816 62.0819 44.3344 65.8906 44.3344C69.6993 44.3344 72.7939 47.3816 72.7939 51.1319C72.7939 54.8823 69.6993 57.9295 65.8906 57.9295ZM78.7449 49.4911H75.9678C75.9678 49.413 75.9678 49.3349 75.8884 49.2568C75.8884 49.1005 75.8091 49.0224 75.8091 48.8661C75.7298 48.7098 75.7297 48.4754 75.6504 48.3191C75.6504 48.1629 75.571 48.0848 75.571 47.9285C75.4917 47.7722 75.4124 47.5378 75.4124 47.3816C75.333 47.3034 75.333 47.1472 75.2536 47.069C75.1743 46.9128 75.095 46.6784 75.0156 46.5221C74.9363 46.444 74.9362 46.2877 74.8569 46.2096C74.7775 46.0533 74.6189 45.8189 74.5396 45.6627C74.4602 45.5845 74.4602 45.5064 74.3808 45.4283C74.2221 45.1939 73.9841 44.9594 73.8254 44.725C73.6667 44.4907 73.4286 44.2563 73.1906 44.1C73.1113 44.0219 73.032 43.9437 72.9526 43.8656C72.7939 43.7093 72.6351 43.5531 72.4764 43.4749C72.3971 43.3968 72.3178 43.3187 72.1591 43.2405C72.0004 43.1624 71.8417 43.0061 71.683 42.928C71.6036 42.8499 71.445 42.7718 71.3657 42.6936C71.207 42.6155 71.0482 42.5373 70.8895 42.3811C70.8101 42.3029 70.6515 42.2248 70.5722 42.2248C70.4135 42.1467 70.2547 42.0685 70.096 41.9904C69.9373 41.9123 69.858 41.9123 69.6993 41.8342C69.5406 41.756 69.3819 41.6779 69.1439 41.6779C68.9852 41.5998 68.9058 41.5998 68.7471 41.5216C68.5884 41.4435 68.3504 41.4435 68.1917 41.3654C68.033 41.3654 67.9537 41.2872 67.795 41.2872C67.557 41.2091 67.3982 41.2091 67.1602 41.2091C67.0808 41.2091 66.9221 41.2091 66.8428 41.131C66.5254 41.131 66.2081 41.0528 65.8113 41.0528C65.4146 41.0528 65.1765 41.0528 64.7797 41.131C64.7004 41.131 64.5417 41.131 64.4623 41.2091C64.2243 41.2091 64.0657 41.2872 63.8276 41.2872C63.6689 41.2872 63.5896 41.3654 63.4309 41.3654C63.2722 41.4435 63.0341 41.4435 62.8754 41.5216C62.7167 41.5216 62.6373 41.5998 62.4786 41.6779C62.3199 41.756 62.1613 41.8342 61.9232 41.8342C61.7645 41.9123 61.6852 41.9123 61.5265 41.9904C61.3678 42.0685 61.2091 42.1467 61.0504 42.2248C60.8917 42.303 60.8124 42.3811 60.733 42.3811C60.5743 42.4592 60.4157 42.5374 60.257 42.6936C60.1776 42.7718 60.0189 42.8499 59.9395 42.928C59.7809 43.0061 59.6222 43.1624 59.4635 43.2405C59.3841 43.3187 59.2254 43.3968 59.1461 43.4749C58.9874 43.6312 58.8287 43.7093 58.67 43.8656C58.5907 43.9437 58.5113 44.0219 58.4319 44.1C58.1939 44.3344 58.0352 44.4907 57.8765 44.725C57.8765 44.725 57.8764 44.7251 57.7971 44.8032C57.6384 45.0376 57.4004 45.272 57.2417 45.5064C57.1624 45.5845 57.1624 45.6627 57.083 45.7408C57.0037 45.8971 56.845 46.1314 56.7656 46.2877C56.6863 46.3658 56.6862 46.5221 56.6069 46.6003C56.5275 46.7565 56.4482 46.9128 56.3689 47.1472C56.2896 47.2253 56.2895 47.3816 56.2101 47.4597C56.1308 47.616 56.0515 47.7722 56.0515 48.0066C55.9721 48.1629 55.9722 48.241 55.9722 48.3973C55.8928 48.5536 55.8928 48.788 55.8134 48.9442C55.8134 49.1005 55.7341 49.1786 55.7341 49.3349C55.7341 49.413 55.7341 49.4911 55.6547 49.5693H31.8027C31.8027 49.4911 31.8027 49.413 31.7233 49.3349C31.7233 49.1786 31.6439 49.1005 31.6439 48.9442C31.5646 48.788 31.5646 48.5536 31.4853 48.3973C31.4853 48.241 31.4059 48.1629 31.4059 48.0066C31.3266 47.8504 31.2472 47.616 31.2472 47.4597C31.1678 47.3816 31.1679 47.2253 31.0885 47.1472C31.0092 46.9909 30.9298 46.8346 30.8504 46.6003C30.7711 46.5221 30.7711 46.3658 30.6918 46.2877C30.6124 46.1314 30.4537 45.8971 30.3744 45.7408C30.295 45.6627 30.2951 45.5845 30.2157 45.5064C30.057 45.272 29.8189 45.0376 29.6602 44.8032C29.6602 44.8032 29.6602 44.8032 29.5809 44.725C29.4222 44.4907 29.1842 44.2563 29.0255 44.1C28.9461 44.0219 28.8668 43.9437 28.7874 43.8656C28.6287 43.7093 28.47 43.5531 28.3113 43.4749C28.232 43.3968 28.1526 43.3187 27.9939 43.2405C27.8352 43.1624 27.6766 43.0061 27.5179 42.928C27.4385 42.8499 27.2798 42.7718 27.2004 42.6936C27.0418 42.6155 26.8831 42.5373 26.7244 42.3811C26.645 42.3029 26.4863 42.2248 26.407 42.2248C26.2483 42.1467 26.0896 42.0685 25.9309 41.9904C25.7722 41.9123 25.6929 41.9123 25.5342 41.8342C25.3755 41.756 25.2168 41.6779 24.9788 41.6779C24.8201 41.5998 24.7407 41.5998 24.582 41.5216C24.4233 41.4435 24.1852 41.4435 24.0265 41.3654C23.8678 41.3654 23.7885 41.2872 23.6298 41.2872C23.3918 41.2091 23.2331 41.2091 22.9951 41.2091C22.9157 41.2091 22.757 41.2091 22.6777 41.131C22.3603 41.131 22.0428 41.0528 21.6461 41.0528C21.3287 41.0528 21.0114 41.0528 20.6146 41.131C20.5353 41.131 20.3766 41.131 20.2972 41.2091C20.0592 41.2091 19.9004 41.2872 19.6624 41.2872C19.5037 41.2872 19.4244 41.3654 19.2657 41.3654C19.107 41.4435 18.869 41.4435 18.7103 41.5216C18.5516 41.5216 18.4722 41.5998 18.3135 41.6779C18.1548 41.756 17.9961 41.8342 17.758 41.8342C17.5993 41.9123 17.52 41.9123 17.3613 41.9904C17.2026 42.0685 17.0439 42.1467 16.8852 42.2248C16.7265 42.303 16.6472 42.3811 16.5678 42.3811C16.4091 42.4592 16.2505 42.5374 16.0918 42.6936C16.0124 42.7718 15.8537 42.8499 15.7743 42.928C15.6156 43.0061 15.457 43.1624 15.2983 43.2405C15.2189 43.3187 15.0602 43.3968 14.9809 43.4749C14.8222 43.6312 14.6635 43.7093 14.5048 43.8656C14.4255 43.9437 14.3462 44.0219 14.2668 44.1C14.0288 44.3344 13.87 44.4907 13.7113 44.725C13.7113 44.725 13.7113 44.7251 13.632 44.8032C13.4733 45.0376 13.2353 45.272 13.0766 45.5064C12.9972 45.5845 12.9972 45.6627 12.9178 45.7408C12.8385 45.8971 12.6798 46.1314 12.6004 46.2877C12.5211 46.3658 12.5211 46.5221 12.4418 46.6003C12.3624 46.7565 12.283 46.9128 12.2037 47.1472C12.1243 47.2253 12.1244 47.3816 12.045 47.4597C11.9657 47.616 11.8864 47.7722 11.8864 48.0066C11.807 48.1629 11.807 48.241 11.807 48.3973C11.7276 48.5536 11.7276 48.788 11.6483 48.9442C11.6483 49.1005 11.569 49.1786 11.569 49.3349C11.569 49.413 11.569 49.4911 11.4896 49.5693H3.25324C3.09455 49.5693 3.01516 49.4911 3.01516 49.3349V40.7403C3.01516 40.584 3.09455 40.5059 3.25324 40.5059H4.28471H50.9732C51.846 40.5059 52.6395 39.8027 52.6395 38.8651V15.3472H54.3852V28.3172C54.3852 29.1767 55.0993 29.958 56.0515 29.958C57.0037 29.958 57.7178 29.2548 57.7178 28.3172V15.3472H65.97C66.3667 15.3472 66.7634 15.5816 66.9221 15.816L73.9047 27.3797C74.1428 27.7703 74.3809 28.161 74.6189 28.5516L70.1754 30.1924C67.4776 31.2081 64.621 31.7551 61.6852 31.7551H56.0515C55.1787 31.7551 54.3852 32.4582 54.3852 33.3958C54.3852 34.3334 55.0993 35.0366 56.0515 35.0366H61.6852C65.0178 35.0366 68.2711 34.4116 71.3657 33.3177L76.1265 31.5207C77.4754 34.5678 78.3482 37.7713 78.3482 40.2715V49.4911H78.7449Z" fill="#008C67" stroke="white" stroke-width="0.6" mask="url(#path-1-inside-1_133_896)"/>
</svg>
