<svg width="25" height="22" viewBox="0 0 25 22" fill="none" xmlns="http://www.w3.org/2000/svg">
<path d="M0.520833 21.875H24.4792C24.6173 21.875 24.7498 21.8201 24.8475 21.7225C24.9451 21.6248 25 21.4923 25 21.3542V0.520833C25 0.3827 24.9451 0.250224 24.8475 0.152549C24.7498 0.0548735 24.6173 0 24.4792 0H0.520833C0.3827 0 0.250224 0.0548735 0.152549 0.152549C0.0548735 0.250224 0 0.3827 0 0.520833V21.3542C0 21.4923 0.0548735 21.6248 0.152549 21.7225C0.250224 21.8201 0.3827 21.875 0.520833 21.875ZM1.04167 20.8333V14.9604C1.06458 14.9437 1.09062 14.9344 1.11146 14.9135L6.44062 9.58437C6.57703 9.45422 6.75833 9.3816 6.94687 9.3816C7.13542 9.3816 7.31672 9.45422 7.45312 9.58437L15.2875 17.4187C15.3835 17.5155 15.5136 17.5706 15.6499 17.5721C15.7861 17.5737 15.9175 17.5216 16.0156 17.4271L20.0427 13.6021C20.1738 13.4696 20.3516 13.3938 20.538 13.3909C20.7243 13.3879 20.9044 13.4582 21.0396 13.5865L23.9583 16.7656L23.9594 16.7667V20.8333H1.04167ZM23.9583 1.04167V15.2271L21.7906 12.8667C21.6283 12.7028 21.4351 12.5728 21.2221 12.4843C21.0091 12.3957 20.7806 12.3504 20.55 12.351H20.549C20.32 12.35 20.0931 12.3943 19.8813 12.4811C19.6695 12.568 19.4769 12.6958 19.3146 12.8573L15.6646 16.324L8.18958 8.84792C7.52396 8.18333 6.36771 8.18438 5.70417 8.84792L1.04167 13.5115V1.04167H23.9583Z" fill="#008C67"/>
</svg>
