<svg width="25" height="24" viewBox="0 0 25 24" fill="none" xmlns="http://www.w3.org/2000/svg">
<path d="M16.925 1.47174C16.4885 1.47165 16.0574 1.56866 15.663 1.75573C15.2686 1.94281 14.9207 2.21527 14.6446 2.55337C14.3685 2.89148 14.171 3.28677 14.0665 3.7106C13.962 4.13444 13.9531 4.57622 14.0404 5.00393C14.0642 5.11721 14.0609 5.2345 14.0308 5.34627C14.0007 5.45803 13.9446 5.56112 13.8672 5.64716C13.7897 5.73319 13.6931 5.79975 13.5851 5.84142C13.4771 5.88309 13.3608 5.89869 13.2457 5.88697C12.76 5.88697 12.3008 6.00471 11.8976 6.2137C11.677 5.7708 11.4016 5.35743 11.0778 4.98332C11.5224 4.73189 12.0075 4.56006 12.5113 4.47557V4.41523C12.5113 3.83541 12.6255 3.26127 12.8474 2.72559C13.0693 2.18991 13.3945 1.70318 13.8045 1.29319C14.2145 0.883199 14.7012 0.557975 15.2369 0.336089C15.7726 0.114203 16.3467 0 16.9265 0C17.5063 0 18.0805 0.114203 18.6162 0.336089C19.1518 0.557975 19.6386 0.883199 20.0486 1.29319C20.4585 1.70318 20.7838 2.18991 21.0057 2.72559C21.2275 3.26127 21.3417 3.83541 21.3417 4.41523L21.3403 4.47557C21.9185 4.57599 22.4708 4.79065 22.9651 5.10703C23.4593 5.4234 23.8856 5.83512 24.2188 6.31813C24.5521 6.80115 24.7858 7.34575 24.9061 7.92011C25.0265 8.49448 25.0312 9.08707 24.9198 9.66325C24.8085 10.2394 24.5834 10.7876 24.2578 11.2758C23.9321 11.764 23.5124 12.1824 23.0232 12.5065C22.534 12.8306 21.985 13.0539 21.4085 13.1634C20.832 13.2729 20.2394 13.2663 19.6654 13.1441L19.9892 14.479C20.081 14.858 20.0856 15.2529 20.0025 15.6339C19.9195 16.0149 19.751 16.3721 19.5098 16.6785C19.2686 16.9849 18.9609 17.2325 18.6101 17.4027C18.2592 17.5729 17.8743 17.6612 17.4843 17.6609H16.3628C15.9728 17.6608 15.5879 17.5722 15.2371 17.4017C14.8864 17.2311 14.5789 16.9831 14.338 16.6764C14.097 16.3697 13.9289 16.0123 13.8463 15.6311C13.7636 15.25 13.7686 14.855 13.8609 14.4761L14.5232 11.7504C14.546 11.6565 14.5871 11.5679 14.6441 11.4899C14.7011 11.4118 14.7729 11.3458 14.8555 11.2955C14.938 11.2452 15.0296 11.2117 15.1252 11.1968C15.2207 11.1819 15.3182 11.186 15.4121 11.2088C15.506 11.2316 15.5945 11.2727 15.6726 11.3297C15.7506 11.3867 15.8167 11.4585 15.867 11.5411C15.9173 11.6236 15.9508 11.7153 15.9657 11.8108C15.9806 11.9063 15.9765 12.0038 15.9537 12.0977L15.2914 14.8249C15.252 14.9872 15.2499 15.1563 15.2853 15.3195C15.3208 15.4827 15.3928 15.6358 15.4959 15.7671C15.5991 15.8985 15.7307 16.0047 15.8809 16.0778C16.031 16.1509 16.1958 16.189 16.3628 16.1892H17.4843C17.6516 16.1894 17.8167 16.1517 17.9672 16.0788C18.1178 16.0059 18.2498 15.8997 18.3532 15.7683C18.4567 15.6369 18.529 15.4837 18.5646 15.3202C18.6002 15.1568 18.5982 14.9874 18.5587 14.8249L17.8964 12.0963C17.8621 11.9534 17.8714 11.8035 17.923 11.6659C17.9747 11.5283 18.0663 11.4094 18.1862 11.3243C18.306 11.2393 18.4486 11.1921 18.5955 11.1888C18.7424 11.1856 18.887 11.2263 19.0105 11.3059C19.3973 11.5546 19.837 11.7091 20.2943 11.7572C20.7516 11.8054 21.2138 11.7456 21.6438 11.5829C22.0739 11.4202 22.4599 11.159 22.7708 10.8202C23.0817 10.4815 23.3089 10.0746 23.4342 9.63215C23.5596 9.18974 23.5795 8.72412 23.4924 8.27262C23.4054 7.82111 23.2137 7.39629 22.9329 7.03219C22.6521 6.66809 22.2899 6.37485 21.8753 6.17598C21.4607 5.9771 21.0053 5.87812 20.5455 5.88697C20.4352 5.88921 20.3257 5.86658 20.2253 5.82077C20.1248 5.77497 20.036 5.70715 19.9653 5.62234C19.8947 5.53754 19.844 5.43792 19.817 5.33087C19.7901 5.22382 19.7876 5.11208 19.8097 5.00393C19.897 4.57622 19.888 4.13444 19.7835 3.7106C19.6791 3.28677 19.4816 2.89148 19.2055 2.55337C18.9293 2.21527 18.5815 1.94281 18.1871 1.75573C17.7927 1.56866 17.3616 1.47165 16.925 1.47174ZM3.67936 8.83046C3.67936 8.36406 3.79019 7.90433 4.00272 7.48917C4.21525 7.074 4.52339 6.71529 4.90176 6.44258C5.28012 6.16987 5.71787 5.99097 6.17894 5.92064C6.64001 5.8503 7.11119 5.89053 7.55366 6.03802C7.99612 6.18551 8.39721 6.43603 8.72386 6.76894C9.05051 7.10185 9.29338 7.50762 9.43244 7.95281C9.57151 8.39799 9.60279 8.86985 9.52372 9.3295C9.44464 9.78915 9.25747 10.2234 8.97763 10.5965C8.89564 10.7059 8.8457 10.8359 8.83343 10.972C8.82116 11.1081 8.84703 11.2449 8.90815 11.3672C8.96926 11.4894 9.06321 11.5922 9.17946 11.664C9.29571 11.7359 9.42967 11.7739 9.56633 11.7739H10.3022C10.4974 11.7739 10.6845 11.8515 10.8225 11.9895C10.9605 12.1275 11.0381 12.3147 11.0381 12.5098C11.0381 12.705 10.9605 12.8922 10.8225 13.0302C10.6845 13.1682 10.4974 13.2457 10.3022 13.2457H8.67298C8.56894 13.2458 8.4661 13.2679 8.37124 13.3107C8.27638 13.3534 8.19167 13.4158 8.12269 13.4936C8.0537 13.5715 8.00202 13.6632 7.97105 13.7625C7.94007 13.8618 7.93051 13.9666 7.943 14.0699C8.38746 17.7051 10.311 19.792 11.3869 20.6927C11.6444 20.9076 11.7739 21.1784 11.7739 21.4124C11.7739 21.5884 11.704 21.7573 11.5795 21.8817C11.4551 22.0062 11.2862 22.0761 11.1102 22.0761H2.13403C1.95824 22.0758 1.78979 22.0057 1.66563 21.8812C1.54147 21.7568 1.47174 21.5882 1.47174 21.4124C1.47174 21.1769 1.60126 20.9076 1.85734 20.6927C2.93466 19.792 4.8597 17.7051 5.30269 14.0699C5.31518 13.9666 5.30562 13.8618 5.27464 13.7625C5.24367 13.6632 5.19198 13.5715 5.123 13.4936C5.05402 13.4158 4.9693 13.3534 4.87445 13.3107C4.77959 13.2679 4.67675 13.2458 4.57271 13.2457H2.94349C2.74832 13.2457 2.56115 13.1682 2.42315 13.0302C2.28514 12.8922 2.20761 12.705 2.20761 12.5098C2.20761 12.3147 2.28514 12.1275 2.42315 11.9895C2.56115 11.8515 2.74832 11.7739 2.94349 11.7739H3.67936C3.81602 11.7739 3.94998 11.7359 4.06623 11.664C4.18248 11.5922 4.27642 11.4894 4.33754 11.3672C4.39866 11.2449 4.42453 11.1081 4.41226 10.972C4.39998 10.8359 4.35005 10.7059 4.26805 10.5965C3.88487 10.0876 3.67818 9.46753 3.67936 8.83046ZM6.62284 4.41523C5.91189 4.41503 5.21141 4.58652 4.58095 4.91512C3.9505 5.24371 3.40871 5.71969 3.00167 6.30259C2.59462 6.88548 2.33436 7.55805 2.243 8.26311C2.15165 8.96816 2.2319 9.68485 2.47694 10.3522C1.94456 10.4676 1.47361 10.7756 1.15466 11.2172C0.835719 11.6588 0.691306 12.2028 0.749196 12.7444C0.807086 13.2861 1.06319 13.7872 1.46826 14.1514C1.87333 14.5156 2.39875 14.7172 2.94349 14.7174H3.70879C3.1613 17.3636 1.71752 18.8913 0.91248 19.5639C0.403257 19.9907 0 20.6471 0 21.4124C0 22.5913 0.956633 23.5479 2.1355 23.5479H11.1117C12.2891 23.5479 13.2457 22.5913 13.2457 21.4124C13.2457 20.6471 12.8424 19.9907 12.3332 19.5639C11.5282 18.8913 10.0844 17.3636 9.53689 14.7174H10.3022C10.8469 14.7172 11.3724 14.5156 11.7774 14.1514C12.1825 13.7872 12.4386 13.2861 12.4965 12.7444C12.5544 12.2028 12.41 11.6588 12.091 11.2172C11.7721 10.7756 11.3011 10.4676 10.7687 10.3522C11.0138 9.68485 11.094 8.96816 11.0027 8.26311C10.9113 7.55805 10.6511 6.88548 10.244 6.30259C9.83697 5.71969 9.29519 5.24371 8.66473 4.91512C8.03428 4.58652 7.33379 4.41503 6.62284 4.41523Z" fill="white"/>
</svg>
