<svg width="27" height="30" viewBox="0 0 27 30" fill="none" xmlns="http://www.w3.org/2000/svg">
<path d="M25.9772 18.8708C25.7727 17.6435 24.3243 16.9975 23.0527 16.9598C21.7757 16.9222 20.4931 17.2667 19.2382 17.0621C18.6964 16.976 18.116 16.7338 17.9169 16.2331C17.5852 15.3934 18.525 14.6398 19.299 14.15C20.073 13.6601 20.8912 12.6966 20.3328 11.9807C19.9514 11.4908 19.1774 11.5393 18.5748 11.7277C17.9722 11.9161 17.3365 12.2014 16.7339 12.013C16.0097 11.7869 15.6558 10.9472 15.7167 10.2097C15.783 9.47225 16.1534 8.79939 16.463 8.12115C17.1209 6.67315 17.4913 5.10135 17.5521 3.5134C17.5852 2.59293 17.3973 1.49482 16.5404 1.11264C15.7498 0.76275 14.7824 1.27412 14.3512 2.01158C13.92 2.74903 13.8923 3.63182 13.8702 4.48232C13.8426 5.64502 13.8149 6.80772 13.7873 7.97042C13.7817 8.32031 13.743 8.72403 13.4556 8.92858C13.0023 9.24617 12.3886 8.8263 12.068 8.38491C11.7142 7.90583 11.4377 7.36216 11.0065 6.94229C10.5753 6.52243 9.93403 6.23714 9.35909 6.4363C8.50772 6.73236 8.3474 7.92736 8.82837 8.6702C9.29827 9.39689 11.0895 9.84367 10.9844 10.5704C10.8683 11.4101 9.25405 11.5823 8.6404 11.4424C7.61213 11.2055 6.77183 10.5058 5.83201 10.0267C5.25154 9.73063 4.59367 9.51531 3.95238 9.64988C3.31663 9.78446 2.74721 10.3658 2.83566 10.9956C3.01257 12.2283 5.26812 12.519 5.1465 13.7624C5.08016 14.4191 4.35042 14.7744 3.75889 15.1027C2.69192 15.6949 1.80739 16.5776 1.22692 17.6327C1.11082 17.8372 1.01131 18.0579 1.00026 18.2948C0.983672 18.9676 1.77422 19.4198 2.46526 19.3767C3.1563 19.3337 3.76995 18.973 4.41676 18.7308C5.06358 18.4886 5.85413 18.3917 6.39037 18.8169C6.81606 19.156 6.94874 19.7374 6.96532 20.2703C7.03719 22.8164 5.0691 25.0072 4.72635 27.5318C4.67659 27.8871 4.67106 28.28 4.87561 28.5761C5.24601 29.1144 6.08632 29.0767 6.6889 28.8129C7.95489 28.2585 8.80072 27.0527 9.3038 25.7931C9.60786 25.0342 9.81794 24.216 10.31 23.5592C10.802 22.9025 11.6976 22.4288 12.4826 22.7141C12.9304 22.8756 13.2621 23.247 13.6657 23.5C14.1024 23.7692 14.6552 23.8876 15.1417 23.7315C15.6337 23.57 16.0207 23.0963 15.9765 22.5957C15.9433 22.192 15.6503 21.7883 15.8106 21.4169C15.877 21.2608 16.0207 21.1369 16.1755 21.0562C17.1817 20.491 18.3924 21.2231 19.4704 21.6429C20.9354 22.2081 22.6381 22.1651 24.0755 21.5245C25.159 21.0347 26.1652 20.0173 25.9772 18.8708Z" stroke="#008C67" stroke-width="1.3" stroke-miterlimit="10"/>
</svg>
