<svg width="27" height="24" viewBox="0 0 27 24" fill="none" xmlns="http://www.w3.org/2000/svg">
<path d="M3.34447 16.6166C3.34673 15.5926 3.60216 14.5842 4.08929 13.6761C4.57641 12.768 5.28097 11.9867 6.14372 11.398C7.00647 10.8093 8.00218 10.4304 9.04711 10.2932C10.092 10.1559 11.1556 10.2644 12.1484 10.6093C12.7236 9.87979 13.4749 8.95648 14.3553 7.97617L3.34447 16.6166ZM3.34447 16.6166C3.34447 20.4238 1.26673 22.1223 1.17282 22.1907L3.34447 16.6166ZM14.2809 7.90935C13.4208 8.86702 12.6839 9.77022 12.1138 10.4918C11.1256 10.16 10.0708 10.0579 9.03409 10.194C7.97376 10.3333 6.96318 10.7178 6.08736 11.3154C5.21152 11.913 4.49598 12.7063 4.00116 13.6288C3.50633 14.5513 3.24677 15.5759 3.24447 16.6164V16.6166C3.24447 20.3837 1.18945 22.0549 1.11395 22.1098L1.11391 22.1098L1.11075 22.1123C1.01981 22.1843 0.953518 22.2822 0.921474 22.3928C0.88942 22.5035 0.893338 22.6212 0.932643 22.7296C0.971934 22.8379 1.04451 22.9314 1.13994 22.9975C1.23533 23.0635 1.34906 23.0992 1.46562 23.1H1.46629H9.91809H9.9183C10.9883 23.0978 12.0421 22.8461 12.9913 22.366C13.9405 21.8858 14.7575 21.1913 15.3732 20.3404C15.9889 19.4895 16.3853 18.5072 16.5289 17.4762C16.6691 16.4698 16.5644 15.4459 16.2237 14.4866C16.9663 13.9333 17.8955 13.2183 18.8806 12.3841L18.8807 12.3843L18.8856 12.3795L18.9185 12.3476C20.5525 10.9548 22.3449 9.223 23.7298 7.34735C25.114 5.47265 26.1 3.4424 26.1 1.45596C26.1 1.30755 26.0393 1.16583 25.9321 1.06181C25.8251 0.957882 25.6806 0.9 25.5305 0.9C23.4875 0.9 21.3982 1.85632 19.4675 3.20058C17.5362 4.54529 15.7529 6.28575 14.3185 7.87249L14.2856 7.90442L14.2855 7.90426L14.2809 7.90935ZM17.7925 11.8315C17.0668 12.4389 16.363 12.987 15.737 13.4484C15.1383 12.406 14.2532 11.5461 13.1809 10.9644C13.6559 10.357 14.2197 9.67445 14.8445 8.97081C16.0397 9.69322 17.0481 10.6719 17.7925 11.8315ZM18.6607 11.0969C17.8712 9.9058 16.8285 8.89281 15.6028 8.12585C16.4177 7.24716 17.281 6.41188 18.1889 5.6237L18.1892 5.62352C20.6907 3.43947 22.9541 2.2507 24.9258 2.04566C24.7138 3.95706 23.491 6.15273 21.2429 8.58077L21.2427 8.58097C20.4295 9.46431 19.5676 10.3042 18.6607 11.0969ZM9.91809 21.9881H2.73898C3.48251 21.001 4.38356 19.2388 4.38356 16.6166C4.38356 15.5549 4.70776 14.5167 5.31553 13.6335C5.92333 12.7502 6.78752 12.0613 7.79917 11.6543C8.81084 11.2474 9.92421 11.1409 10.9984 11.3484C12.0725 11.5559 13.0588 12.0679 13.8326 12.8194C14.6065 13.5708 15.1331 14.5278 15.3464 15.5692C15.5597 16.6106 15.4503 17.69 15.0317 18.6712C14.6132 19.6524 13.9043 20.4915 12.994 21.0821C12.0838 21.6727 11.0134 21.9881 9.91809 21.9881Z" fill="#008C67" stroke="#008C67" stroke-width="0.2"/>
</svg>
