<svg width="25" height="25" viewBox="0 0 25 25" fill="none" xmlns="http://www.w3.org/2000/svg">
<path d="M24.1959 12.634L20.4851 16.173L20.2956 16.3538L20.2598 16.6133C20.1847 17.1578 20.4674 17.7805 21.109 17.9911C21.9365 18.2725 22.6849 19.0179 22.8827 20.3551L22.8829 20.3566C22.8925 20.4203 22.8911 20.5009 22.8744 20.5888C22.2664 23.2594 19.5598 23.6792 18.2441 22.3079L18.2442 22.3079L18.2391 22.3027C17.9558 22.0131 17.7635 21.6676 17.6568 21.2911L24.1959 12.634ZM24.1959 12.634L24.1809 12.6115M24.1959 12.634L24.1809 12.6115M24.1809 12.6115L20.9027 9.19528L20.8566 9.14728L20.8197 9.09192C20.3581 8.39926 20.6571 7.39953 21.5104 7.12794L21.518 7.12551L21.518 7.12555C21.9139 7.0042 22.2863 6.79359 22.6187 6.48116C23.7149 5.43449 23.7378 3.74678 22.7266 2.73526L22.7143 2.72295L22.7026 2.71008C21.7433 1.65696 20.0573 1.60158 18.9576 2.65609C18.634 2.96685 18.4056 3.33118 18.2733 3.71549L18.2723 3.71839C17.9736 4.57488 16.9442 4.82364 16.2755 4.3267L16.2244 4.28873L16.1804 4.24269L12.9118 0.819967L12.8991 0.810816L9.18062 4.38017L8.98432 4.56859L8.71287 4.58732C8.18116 4.624 7.58078 4.32495 7.39374 3.68047L7.39365 3.68016C7.14858 2.83442 6.44152 2.04969 5.11544 1.798L5.10816 1.79661L5.10816 1.79658C5.04374 1.78369 4.96387 1.78132 4.87728 1.79339C2.18113 2.28048 1.63949 4.96671 2.95524 6.3441L2.96018 6.34927L2.96015 6.34929C3.23458 6.64211 3.57455 6.84896 3.95244 6.9771L3.95547 6.97813C4.6285 7.20956 4.88401 7.87933 4.77374 8.43085L4.72758 8.66174L4.55774 8.82482L0.8348 12.3994L4.02233 15.722C4.4957 14.3297 5.71203 13.1726 7.55237 12.8097L7.59579 12.8012L7.63992 12.7978C8.03488 12.7674 8.42495 12.7982 8.79948 12.877L8.82105 12.8816L8.84232 12.8874C9.68343 13.1169 10.3628 13.525 10.8824 14.0448L10.8926 14.055L10.9024 14.0656C11.4041 14.6076 11.7829 15.3081 11.974 16.1591L11.9793 16.1827L11.9831 16.2066C12.0424 16.5824 12.052 16.9661 12.0129 17.3478L12.0077 17.3986L11.9956 17.4481C11.5533 19.2712 10.341 20.4262 8.93147 20.836L12.0987 24.1605L15.8382 20.6008L16.0159 20.4317L16.2593 20.4002C16.7901 20.3317 17.4591 20.5905 17.6568 21.291L24.1809 12.6115Z" stroke="white" stroke-width="1.5"/>
</svg>
