<svg width="25" height="25" viewBox="0 0 25 25" fill="none" xmlns="http://www.w3.org/2000/svg">
<path d="M24.1959 12.634L20.4851 16.173L20.2956 16.3538L20.2598 16.6133C20.1847 17.1578 20.4674 17.7806 21.1091 17.9912C21.9366 18.2726 22.6849 19.0179 22.8827 20.3551L22.8829 20.3565C22.8925 20.4203 22.8911 20.5009 22.8744 20.5888C22.2664 23.2594 19.5598 23.6792 18.2441 22.3079L18.2442 22.3079L18.2391 22.3027C17.9559 22.0132 17.7636 21.6678 17.657 21.2915C17.6569 21.2914 17.6569 21.2912 17.6568 21.291L16.9352 21.4954M24.1959 12.634L12.0987 24.1605M24.1959 12.634L24.1809 12.6115L20.9027 9.19528L20.8566 9.14728L20.8197 9.09193C20.3581 8.39926 20.6571 7.39953 21.5104 7.12794L21.518 7.12551L21.518 7.12555C21.9139 7.0042 22.2863 6.79359 22.6187 6.48116C23.7149 5.43449 23.7378 3.74678 22.7266 2.73526L22.7143 2.72295L22.7026 2.71008C21.7433 1.65696 20.0573 1.60159 18.9576 2.65609C18.634 2.96685 18.4056 3.33118 18.2733 3.71549L18.2723 3.71839C17.9736 4.57488 16.9442 4.82364 16.2755 4.3267L16.2244 4.28873L16.1804 4.24269L12.9118 0.819967L12.8991 0.810816L9.18062 4.38017L8.98432 4.56859L8.71287 4.58732C8.18116 4.624 7.58078 4.32495 7.39374 3.68047L7.39365 3.68016C7.14858 2.83442 6.44152 2.04969 5.11544 1.798L5.10816 1.79661L5.10816 1.79658C5.04374 1.78369 4.96387 1.78132 4.87728 1.79339C2.18113 2.28047 1.63949 4.96671 2.95524 6.3441L2.96018 6.34927L2.96015 6.34929C3.23458 6.64211 3.57455 6.84896 3.95244 6.9771L3.95547 6.97813C4.6285 7.20956 4.88401 7.87933 4.77374 8.43086L4.72758 8.66174L4.55774 8.82482L0.8348 12.3994L4.02233 15.722C4.4957 14.3297 5.71203 13.1726 7.55237 12.8097L7.59579 12.8012L7.63992 12.7978C8.03488 12.7674 8.42495 12.7982 8.79947 12.877L8.82105 12.8816L8.84232 12.8874C9.68343 13.1169 10.3628 13.525 10.8824 14.0448L10.8926 14.055L10.9024 14.0656C11.4041 14.6076 11.7829 15.3081 11.974 16.1591L11.9793 16.1827L11.9831 16.2066C12.0424 16.5824 12.052 16.9661 12.0129 17.3478L12.0077 17.3986L11.9956 17.4481C11.5533 19.2712 10.341 20.4262 8.93147 20.836M24.1959 12.634L8.79373 20.6915M16.9352 21.4954C16.8617 21.234 16.6085 21.1114 16.3553 21.1441L12.4756 24.8371C12.2551 25.0495 11.9039 25.0495 11.6997 24.8289L8.22019 21.1768M16.9352 21.4954C17.0741 21.9856 17.3273 22.4432 17.703 22.8272M16.9352 21.4954L17.703 22.8272M8.22019 21.1768L8.6113 20.8835L8.61227 20.8828L8.74287 20.7849C8.74112 20.7923 8.73906 20.7991 8.73681 20.8054C8.71647 20.8625 8.66972 20.9031 8.61882 20.9141C8.72394 20.8921 8.82824 20.8661 8.93147 20.836M8.22019 21.1768L8.59754 20.8173L8.59839 20.8165L8.72325 20.6975L8.74262 20.679C8.73448 20.6426 8.71891 20.6097 8.69962 20.5831C8.69256 20.5734 8.68499 20.5645 8.67711 20.5566L8.70161 20.5812L8.73929 20.6189L8.77126 20.6615L8.79373 20.6915M8.22019 21.1768L8.17119 21.1114L8.14669 21.0869C7.84448 20.7846 8.03234 20.2698 8.46523 20.18C9.7149 19.9185 10.8584 18.9544 11.2668 17.2713C11.2994 16.9526 11.2913 16.634 11.2423 16.3235C11.0789 15.5964 10.7604 15.0163 10.352 14.575C9.92726 14.1502 9.36368 13.807 8.64492 13.6109C8.33454 13.5456 8.016 13.5211 7.69746 13.5456C5.99856 13.8806 4.97759 14.9754 4.65905 16.2091C4.55287 16.634 4.03013 16.7974 3.73609 16.4869L3.71159 16.4624L8.79373 20.6915M8.93147 20.836L12.0987 24.1605M8.93147 20.836L8.79373 20.6915M12.0987 24.1605L11.9585 24.2939L11.9553 24.2969C11.9564 24.2959 11.9574 24.2949 11.9585 24.2939C12.0182 24.2398 12.1438 24.2129 12.2426 24.3117C12.2451 24.3142 12.2476 24.3168 12.2501 24.3195L12.2501 24.3194L12.2427 24.3116L12.0987 24.1605ZM17.703 22.8272C19.459 24.6574 22.8813 23.971 23.6083 20.7437C23.6409 20.5803 23.6491 20.4087 23.6246 20.2453C23.3877 18.6439 22.4566 17.6553 21.3458 17.2795L17.703 22.8272Z" stroke="#008C67" stroke-width="1.5"/>
</svg>
