<svg width="29" height="23" viewBox="0 0 29 23" fill="none" xmlns="http://www.w3.org/2000/svg">
<path d="M21.9777 6.41473L21.9777 6.41471L21.9758 6.41618L21.9748 6.41696C21.3764 6.87414 20.7849 7.32606 19.4961 7.70401C18.2077 8.08186 17.4658 8.02109 16.7155 7.95949C15.8822 7.8594 15.0599 7.81299 13.5819 8.24644C12.2226 8.64505 11.5618 9.13047 10.9556 9.57575C10.9011 9.61576 10.847 9.65545 10.793 9.69472L10.793 9.6947L10.7911 9.69617L10.79 9.69695C10.1917 10.1541 9.60018 10.606 8.31137 10.984C7.0229 11.3619 6.28108 11.3011 5.53078 11.2395C4.69747 11.1394 3.87519 11.093 2.39712 11.5264L2.39342 11.5275C2.08464 11.6181 1.7669 11.7112 1.4633 11.8571C1.32657 11.9003 1.24428 12.0026 1.20749 12.1204C1.17102 12.2371 1.17805 12.37 1.21288 12.4888C1.25445 12.6305 1.3585 12.7154 1.47866 12.7529C1.59543 12.7894 1.7283 12.7824 1.84707 12.7476L1.85657 12.7448L1.86534 12.7402C2.10089 12.6167 2.40429 12.5274 2.66798 12.4501C3.95646 12.0722 4.69828 12.133 5.44858 12.1946C6.28188 12.2947 7.10416 12.3411 8.58223 11.9076C9.94149 11.509 10.6023 11.0236 11.2085 10.5783C11.263 10.5383 11.3171 10.4986 11.3711 10.4593L11.3711 10.4594L11.3731 10.4579L11.3741 10.4571C11.9724 9.99994 12.5639 9.54802 13.8527 9.17007C15.1412 8.79222 15.883 8.85299 16.6333 8.91459C17.4666 9.01468 18.2889 9.06109 19.767 8.62764C21.1262 8.22903 21.7871 7.74361 22.3933 7.29833C22.4478 7.25832 22.5018 7.21863 22.5559 7.17935L22.5559 7.17938L22.5578 7.17791L22.5588 7.17713C23.1572 6.71995 23.7487 6.26803 25.0375 5.89008C25.2995 5.81323 25.4407 5.55489 25.3639 5.29283C25.287 5.03078 25.0287 4.8896 24.7666 4.96645C23.4074 5.36506 22.7465 5.85048 22.1403 6.29576C22.0858 6.33577 22.0318 6.37546 21.9777 6.41473Z" fill="#008C67" stroke="#008C67" stroke-width="0.2"/>
<path d="M15.2145 4.0645L15.2144 4.06447L15.2125 4.06594L15.2115 4.06672C14.6131 4.5239 14.0217 4.97582 12.7328 5.35377C11.4444 5.73162 10.7026 5.67085 9.95225 5.60925C9.11894 5.50916 8.29666 5.46275 6.8186 5.8962C5.45933 6.29481 4.79849 6.78023 4.19228 7.22551C4.13781 7.26552 4.08377 7.30521 4.02971 7.34448L4.0297 7.34446L4.02778 7.34593L4.02675 7.34671C3.42839 7.80389 2.83691 8.25581 1.54809 8.63376C1.23256 8.72629 0.980922 8.79973 0.715888 8.82307L0.706024 8.82394L0.696522 8.82673C0.576125 8.86204 0.472587 8.9252 0.400596 9.01858C0.328039 9.1127 0.293236 9.2302 0.298585 9.36292L0.29908 9.37522L0.302544 9.38704C0.337852 9.50743 0.401012 9.61097 0.494398 9.68296C0.588518 9.75552 0.706011 9.79032 0.838738 9.78497L0.838751 9.78529L0.846693 9.78433C1.18385 9.74364 1.50411 9.64972 1.81529 9.55847L1.81895 9.55739C3.17822 9.15878 3.83907 8.67336 4.44527 8.22808C4.49975 8.18807 4.55378 8.14838 4.60784 8.1091L4.60786 8.10913L4.60978 8.10766L4.6108 8.10688C5.20917 7.6497 5.80065 7.19778 7.08946 6.81983C8.37794 6.44198 9.11976 6.50275 9.87006 6.56435C10.7034 6.66444 11.5256 6.71085 13.0037 6.2774C14.363 5.87879 15.0238 5.39337 15.63 4.94809C15.6845 4.90808 15.7385 4.86839 15.7926 4.82912L15.7926 4.82914L15.7945 4.82767L15.7956 4.82689C16.3939 4.36971 16.9854 3.91779 18.2742 3.53984C19.5627 3.16199 20.3045 3.22276 21.0548 3.28436C21.8881 3.38445 22.7104 3.43087 24.1885 2.99741C24.4505 2.92056 24.5917 2.66223 24.5148 2.40017C24.438 2.13811 24.1797 1.99693 23.9176 2.07378C22.6291 2.45164 21.8873 2.39086 21.137 2.32926C20.3037 2.22917 19.4814 2.18276 18.0034 2.61621C16.6441 3.01482 15.9832 3.50024 15.377 3.94552C15.3226 3.98553 15.2685 4.02522 15.2145 4.0645Z" fill="#008C67" stroke="#008C67" stroke-width="0.2"/>
<path d="M24.4104 14.7116L24.4103 14.7116L24.4084 14.7131L24.4074 14.7138C23.809 15.171 23.2176 15.6229 21.9287 16.0009C20.6403 16.3787 19.8985 16.318 19.1482 16.2564C18.3148 16.1563 17.4926 16.1099 16.0145 16.5433C14.6552 16.9419 13.9944 17.4273 13.3882 17.8726C13.3337 17.9126 13.2797 17.9523 13.2256 17.9916L13.2256 17.9916L13.2237 17.993L13.2226 17.9938C12.6243 18.451 12.0328 18.9029 10.744 19.2809C9.45551 19.6587 8.71369 19.598 7.96339 19.5364C7.13008 19.4363 6.3078 19.3899 4.82974 19.8233L4.82604 19.8244C4.51726 19.9149 4.19952 20.0081 3.89592 20.154C3.75919 20.1972 3.67689 20.2995 3.64011 20.4172C3.60363 20.534 3.61067 20.6669 3.6455 20.7856C3.68707 20.9274 3.79111 21.0123 3.91128 21.0498C4.02804 21.0863 4.16092 21.0793 4.27968 21.0444L4.28919 21.0416L4.29796 21.037C4.5335 20.9136 4.8369 20.8243 5.1006 20.7469C6.38907 20.3691 7.13089 20.4299 7.88119 20.4915C8.7145 20.5915 9.53678 20.638 11.0148 20.2045C12.3741 19.8059 13.035 19.3205 13.6412 18.8752C13.6956 18.8352 13.7497 18.7955 13.8037 18.7562L13.8038 18.7562L13.8057 18.7548L13.8067 18.754C14.4051 18.2968 14.9965 17.8449 16.2854 17.4669C17.5738 17.0891 18.3156 17.1499 19.0659 17.2115C19.8993 17.3116 20.7215 17.358 22.1996 16.9245C23.5589 16.5259 24.2197 16.0405 24.8259 15.5952C24.8804 15.5552 24.9344 15.5155 24.9885 15.4762L24.9885 15.4763L24.9904 15.4748L24.9915 15.474C25.5898 15.0168 26.1813 14.5649 27.4701 14.187C27.7322 14.1101 27.8733 13.8518 27.7965 13.5897C27.7196 13.3276 27.4613 13.1865 27.1992 13.2633C25.84 13.6619 25.1791 14.1474 24.5729 14.5926C24.5185 14.6326 24.4644 14.6723 24.4104 14.7116Z" fill="#008C67" stroke="#008C67" stroke-width="0.2"/>
<path d="M17.6471 12.3594L17.6471 12.3594L17.6451 12.3609L17.6441 12.3616C17.0458 12.8188 16.4543 13.2707 15.1655 13.6487C13.877 14.0265 13.1352 13.9658 12.3849 13.9042C11.5516 13.8041 10.7293 13.7577 9.25122 14.1911C7.89195 14.5897 7.23111 15.0751 6.6249 15.5204C6.57043 15.5604 6.51639 15.6001 6.46233 15.6394L6.46231 15.6394L6.46039 15.6409L6.45937 15.6416C5.86101 16.0988 5.26952 16.5507 3.98071 16.9287C3.66517 17.0212 3.41354 17.0946 3.1485 17.118L3.13864 17.1189L3.12914 17.1217C3.00874 17.157 2.9052 17.2201 2.83321 17.3135C2.76066 17.4076 2.72585 17.5251 2.7312 17.6578L2.7317 17.6701L2.73516 17.682C2.77047 17.8024 2.83363 17.9059 2.92702 17.9779C3.02114 18.0504 3.13863 18.0852 3.27136 18.0799L3.27137 18.0802L3.27931 18.0793C3.61645 18.0386 3.93671 17.9447 4.24787 17.8534L4.25157 17.8523C5.61084 17.4537 6.27169 16.9683 6.87789 16.523C6.93237 16.483 6.9864 16.4433 7.04046 16.404L7.04048 16.4041L7.04239 16.4026L7.04342 16.4018C7.64178 15.9446 8.23327 15.4927 9.52208 15.1148C10.8106 14.7369 11.5524 14.7977 12.3027 14.8593C13.136 14.9594 13.9583 15.0058 15.4363 14.5723C16.7956 14.1737 17.4564 13.6883 18.0626 13.243C18.1171 13.203 18.1712 13.1633 18.2252 13.124L18.2252 13.1241L18.2271 13.1226L18.2282 13.1218C18.8265 12.6646 19.418 12.2127 20.7068 11.8348C21.9953 11.4569 22.7371 11.5177 23.4874 11.5793C24.3207 11.6794 25.143 11.7258 26.6211 11.2923C26.8831 11.2155 27.0243 10.9571 26.9475 10.6951C26.8706 10.433 26.6123 10.2919 26.3502 10.3687C25.0617 10.7466 24.3199 10.6858 23.5696 10.6242C22.7363 10.5241 21.914 10.4777 20.436 10.9111C19.0767 11.3097 18.4159 11.7952 17.8097 12.2404C17.7552 12.2805 17.7011 12.3201 17.6471 12.3594Z" fill="#008C67" stroke="#008C67" stroke-width="0.2"/>
</svg>
