<svg width="27" height="27" viewBox="0 0 27 27" fill="none" xmlns="http://www.w3.org/2000/svg">
<path d="M13.5 8.5L18.255 11.955L13.5 8.5ZM13.5 8.5L8.745 11.955L13.5 8.5ZM13.5 8.5V4.75V8.5ZM18.255 11.955L16.4387 17.545L18.255 11.955ZM18.255 11.955L21.625 10.375L18.255 11.955ZM16.4387 17.545H10.5625H16.4387ZM16.44 17.545L18.5 20.375L16.44 17.545ZM10.5613 17.545L8.745 11.955L10.5613 17.545ZM10.5613 17.545L8.5 20.375L10.5613 17.545ZM8.745 11.955L5.375 10.375L8.745 11.955ZM5.375 10.375L1.0625 14.75L5.375 10.375ZM5.375 10.375L4.125 5.23125L5.375 10.375ZM21.625 10.375L25.9375 14.75L21.625 10.375ZM21.625 10.375L22.875 5.23125L21.625 10.375ZM13.5 4.75L9.28 1.73L13.5 4.75ZM13.5 4.75L17.72 1.73L13.5 4.75ZM8.5 20.375L2.6725 19.75L8.5 20.375ZM8.5 20.375L11.625 25.86L8.5 20.375ZM18.5 20.375L24.3275 19.75L18.5 20.375ZM18.5 20.375L15.375 25.86L18.5 20.375ZM26 13.5C26 20.4037 20.4037 26 13.5 26C6.59625 26 1 20.4037 1 13.5C1 6.59625 6.59625 1 13.5 1C20.4037 1 26 6.59625 26 13.5Z" stroke="white" stroke-width="1.2" stroke-linecap="round" stroke-linejoin="round"/>
</svg>
