<svg width="25" height="21" viewBox="0 0 25 21" fill="none" xmlns="http://www.w3.org/2000/svg">
<path d="M1.5625 3.01895C2.94531 2.44083 4.92812 1.81739 6.85625 1.62364C8.93437 1.41426 10.6969 1.72208 11.7188 2.79864V18.0268C10.2578 17.1986 8.40625 17.0846 6.69844 17.2565C4.85469 17.444 2.99531 17.9768 1.5625 18.5236V3.01895ZM13.2812 2.79864C14.3031 1.72208 16.0656 1.41426 18.1438 1.62364C20.0719 1.81739 22.0547 2.44083 23.4375 3.01895V18.5236C22.0031 17.9768 20.1453 17.4424 18.3016 17.258C16.5922 17.0846 14.7422 17.1971 13.2812 18.0268V2.79864ZM12.5 1.38614C10.9609 0.0627013 8.72969 -0.134174 6.69844 0.0689513C4.33281 0.308014 1.94531 1.11895 0.457813 1.79551C0.321327 1.85759 0.205586 1.95763 0.124408 2.08369C0.0432292 2.20975 4.15178e-05 2.35651 0 2.50645L0 19.694C3.61906e-05 19.8247 0.0328705 19.9533 0.0954955 20.068C0.15812 20.1828 0.248534 20.28 0.358454 20.3507C0.468375 20.4214 0.594288 20.4635 0.724661 20.4729C0.855034 20.4824 0.985699 20.459 1.10469 20.4049C2.48281 19.7799 4.70312 19.0283 6.85469 18.8111C9.05625 18.5893 10.9016 18.9471 11.8906 20.1815C11.9638 20.2727 12.0566 20.3463 12.1621 20.3969C12.2675 20.4475 12.383 20.4738 12.5 20.4738C12.617 20.4738 12.7325 20.4475 12.8379 20.3969C12.9434 20.3463 13.0362 20.2727 13.1094 20.1815C14.0984 18.9471 15.9438 18.5893 18.1438 18.8111C20.2969 19.0283 22.5188 19.7799 23.8953 20.4049C24.0143 20.459 24.145 20.4824 24.2753 20.4729C24.4057 20.4635 24.5316 20.4214 24.6415 20.3507C24.7515 20.28 24.8419 20.1828 24.9045 20.068C24.9671 19.9533 25 19.8247 25 19.694V2.50645C25 2.35651 24.9568 2.20975 24.8756 2.08369C24.7944 1.95763 24.6787 1.85759 24.5422 1.79551C23.0547 1.11895 20.6672 0.308014 18.3016 0.0689513C16.2703 -0.135736 14.0391 0.0627013 12.5 1.38614Z" fill="white"/>
</svg>
