<svg width="27" height="27" viewBox="0 0 27 27" fill="none" xmlns="http://www.w3.org/2000/svg">
<path d="M13.5 0.85C6.52521 0.85 0.85 6.52398 0.85 13.5C0.85 20.476 6.52521 26.15 13.5 26.15C20.4748 26.15 26.15 20.476 26.15 13.5C26.15 6.52398 20.4748 0.85 13.5 0.85ZM13.5 25.0174C7.15006 25.0174 1.98411 19.8504 1.98411 13.5C1.98411 7.14962 7.15006 1.98261 13.5 1.98261C19.8499 1.98261 25.0159 7.14962 25.0159 13.5C25.0159 19.8504 19.8499 25.0174 13.5 25.0174Z" fill="#008C67" stroke="#008C67" stroke-width="0.3"/>
<path d="M16.2283 6.48355H14.1485C11.4996 6.45704 11.1613 8.09652 11.1613 9.87088V11.1611H9.99195C9.9391 11.154 9.88533 11.1593 9.83482 11.1764C9.78432 11.1934 9.73843 11.222 9.70073 11.2597C9.66302 11.2974 9.63452 11.3433 9.61743 11.3938C9.60033 11.4443 9.59512 11.498 9.60218 11.5509V13.8897C9.59512 13.9425 9.60033 13.9963 9.61743 14.0468C9.63452 14.0973 9.66302 14.1432 9.70073 14.1809C9.73843 14.2186 9.78432 14.2471 9.83482 14.2642C9.88533 14.2813 9.9391 14.2865 9.99195 14.2795H11.1613V20.1264C11.1548 20.1794 11.1605 20.2331 11.1779 20.2835C11.1954 20.3339 11.2241 20.3797 11.2619 20.4173C11.2998 20.4549 11.3457 20.4834 11.3962 20.5005C11.4467 20.5177 11.5005 20.523 11.5534 20.5162H13.9349C14.1649 20.5427 14.3512 20.3564 14.2779 20.1264L14.2794 14.2795H16.2283C16.2812 14.2865 16.3349 14.2813 16.3854 14.2642C16.4359 14.2471 16.4818 14.2186 16.5195 14.1809C16.5572 14.1432 16.5857 14.0973 16.6028 14.0468C16.6199 13.9963 16.6251 13.9425 16.6181 13.8897V11.5509C16.6251 11.498 16.6199 11.4443 16.6028 11.3938C16.5857 11.3433 16.5572 11.2974 16.5195 11.2597C16.4818 11.222 16.4359 11.1934 16.3854 11.1764C16.3349 11.1593 16.2812 11.154 16.2283 11.1611H14.2771L14.2794 9.99172C14.3551 9.49356 14.3551 9.57463 14.8173 9.60192H16.2119C16.3203 9.57775 16.4357 9.591 16.5167 9.51227C16.5978 9.43353 16.6446 9.32594 16.6173 9.21212V6.87334C16.6245 6.82053 16.6194 6.76677 16.6024 6.71625C16.5854 6.66573 16.557 6.61982 16.5193 6.5821C16.4817 6.54437 16.4358 6.51585 16.3854 6.49875C16.3349 6.48166 16.2811 6.47645 16.2283 6.48355V6.48355ZM15.8112 8.77867L14.8337 8.74125C13.6231 8.74125 13.5217 9.39844 13.5217 10.0712L13.5186 11.5493C13.5185 11.6041 13.5292 11.6583 13.5501 11.7089C13.5709 11.7595 13.6016 11.8055 13.6403 11.8442C13.6789 11.883 13.7248 11.9137 13.7754 11.9347C13.826 11.9556 13.8802 11.9664 13.9349 11.9664H15.8385V13.4726H13.9364C13.826 13.4726 13.72 13.5164 13.6418 13.5945C13.5636 13.6725 13.5196 13.7784 13.5194 13.8889L13.5186 19.7366H11.9408V13.8897C11.9408 13.6597 11.7841 13.4734 11.5534 13.4734H10.3817V11.9672H11.5534C11.6081 11.9673 11.6623 11.9566 11.7128 11.9357C11.7634 11.9149 11.8093 11.8842 11.848 11.8456C11.926 11.7668 11.94 11.6608 11.94 11.5501V9.8701C11.94 8.12225 12.2932 7.28965 14.1477 7.28965H15.8105V8.77867H15.8112Z" fill="#008C67"/>
</svg>
