<svg width="25" height="25" viewBox="0 0 25 25" fill="none" xmlns="http://www.w3.org/2000/svg">
<path d="M12.5 6.63265C11.3395 6.63265 10.2052 6.97677 9.24028 7.62148C8.2754 8.26619 7.52336 9.18255 7.07928 10.2547C6.63519 11.3268 6.519 12.5065 6.74539 13.6447C6.97179 14.7828 7.5306 15.8283 8.35116 16.6488C9.17172 17.4694 10.2172 18.0282 11.3553 18.2546C12.4935 18.481 13.6732 18.3648 14.7453 17.9207C15.8175 17.4766 16.7338 16.7246 17.3785 15.7597C18.0232 14.7948 18.3673 13.6605 18.3673 12.5C18.3673 10.9439 17.7492 9.4515 16.6488 8.35116C15.5485 7.25082 14.0561 6.63265 12.5 6.63265ZM12.5 16.8367C11.6423 16.8367 10.8038 16.5824 10.0906 16.1059C9.37747 15.6293 8.82162 14.952 8.49338 14.1596C8.16514 13.3672 8.07926 12.4952 8.24659 11.6539C8.41393 10.8127 8.82696 10.04 9.43347 9.43347C10.04 8.82696 10.8127 8.41393 11.6539 8.24659C12.4952 8.07926 13.3672 8.16514 14.1596 8.49338C14.952 8.82162 15.6293 9.37747 16.1059 10.0906C16.5824 10.8038 16.8367 11.6423 16.8367 12.5C16.8334 13.6491 16.3754 14.7502 15.5628 15.5628C14.7502 16.3754 13.6491 16.8334 12.5 16.8367ZM18.1122 0H6.88775C5.06101 0 3.30908 0.725672 2.01738 2.01738C0.725672 3.30908 0 5.06101 0 6.88775V18.1122C0 19.939 0.725672 21.6909 2.01738 22.9826C3.30908 24.2743 5.06101 25 6.88775 25H18.1122C19.939 25 21.6909 24.2743 22.9826 22.9826C24.2743 21.6909 25 19.939 25 18.1122V6.88775C25 5.06101 24.2743 3.30908 22.9826 2.01738C21.6909 0.725672 19.939 0 18.1122 0ZM23.4694 18.1122C23.4694 19.533 22.905 20.8957 21.9003 21.9003C20.8957 22.905 19.533 23.4694 18.1122 23.4694H6.88775C5.46695 23.4694 4.10434 22.905 3.09968 21.9003C2.09502 20.8957 1.53061 19.533 1.53061 18.1122V6.88775C1.53061 5.46695 2.09502 4.10434 3.09968 3.09968C4.10434 2.09502 5.46695 1.53061 6.88775 1.53061H18.1122C19.533 1.53061 20.8957 2.09502 21.9003 3.09968C22.905 4.10434 23.4694 5.46695 23.4694 6.88775V18.1122ZM20.4082 5.86735C20.4082 6.11962 20.3334 6.36623 20.1932 6.57598C20.053 6.78574 19.8538 6.94922 19.6208 7.04576C19.3877 7.1423 19.1312 7.16756 18.8838 7.11835C18.6364 7.06913 18.4091 6.94765 18.2307 6.76927C18.0523 6.59089 17.9309 6.36361 17.8817 6.11619C17.8324 5.86876 17.8577 5.6123 17.9542 5.37923C18.0508 5.14616 18.2143 4.94695 18.424 4.8068C18.6338 4.66664 18.8804 4.59184 19.1327 4.59184C19.4709 4.59184 19.7954 4.72622 20.0346 4.96543C20.2738 5.20463 20.4082 5.52906 20.4082 5.86735Z" fill="#008C67"/>
</svg>
