<svg width="18" height="21" viewBox="0 0 18 21" fill="none" xmlns="http://www.w3.org/2000/svg">
<path d="M17.9573 7.90746C17.8086 6.40446 17.2619 4.96447 16.3703 3.72772C15.4788 2.49097 14.2728 1.4996 12.8698 0.85015C11.4668 0.200702 9.91466 -0.0846919 8.36443 0.0217597C6.81421 0.128211 5.31877 0.62288 4.02375 1.4576C2.91118 2.1804 1.97719 3.13363 1.28886 4.24883C0.600542 5.36402 0.174978 6.61348 0.0427421 7.90746C-0.0869768 9.19297 0.0794541 10.4904 0.52996 11.7057C0.980466 12.9209 1.70375 14.0235 2.64734 14.9334L8.25886 20.3957C8.35728 20.4921 8.47439 20.5687 8.60341 20.6209C8.73243 20.6731 8.87082 20.7 9.01059 20.7C9.15036 20.7 9.28875 20.6731 9.41777 20.6209C9.54679 20.5687 9.66389 20.4921 9.76232 20.3957L15.3527 14.9334C16.2963 14.0235 17.0195 12.9209 17.47 11.7057C17.9205 10.4904 18.087 9.19297 17.9573 7.90746ZM13.8704 13.4829L9 18.2149L4.12962 13.4829C3.41187 12.7855 2.86206 11.9423 2.51972 11.0138C2.17738 10.0854 2.05102 9.09477 2.14971 8.1132C2.24904 7.11651 2.57509 6.15372 3.10427 5.29444C3.63346 4.43516 4.35256 3.70086 5.20958 3.14464C6.33288 2.41966 7.65144 2.03294 9 2.03294C10.3486 2.03294 11.6671 2.41966 12.7904 3.14464C13.6448 3.69871 14.3624 4.42976 14.8914 5.28528C15.4205 6.14079 15.7479 7.09953 15.8503 8.09263C15.9522 9.07752 15.8274 10.0721 15.485 11.0044C15.1426 11.9366 14.591 12.7833 13.8704 13.4829ZM9 4.17333C8.05767 4.17333 7.1365 4.44482 6.35299 4.95347C5.56947 5.46212 4.95879 6.18509 4.59818 7.03094C4.23756 7.8768 4.14321 8.80756 4.32705 9.70551C4.51089 10.6035 4.96466 11.4283 5.63099 12.0757C6.29732 12.7231 7.14627 13.1639 8.07049 13.3426C8.99471 13.5212 9.9527 13.4295 10.8233 13.0791C11.6939 12.7288 12.438 12.1355 12.9615 11.3742C13.4851 10.613 13.7645 9.71797 13.7645 8.80242C13.7617 7.57554 13.2588 6.39969 12.3659 5.53216C11.473 4.66463 10.2628 4.17605 9 4.17333ZM9 11.3741C8.47648 11.3741 7.96473 11.2233 7.52944 10.9407C7.09415 10.6581 6.75488 10.2565 6.55454 9.78657C6.3542 9.31665 6.30178 8.79957 6.40392 8.3007C6.50605 7.80184 6.75815 7.3436 7.12833 6.98394C7.49851 6.62428 7.97015 6.37935 8.48361 6.28012C8.99706 6.18089 9.52928 6.23182 10.0129 6.42646C10.4966 6.62111 10.91 6.95073 11.2009 7.37365C11.4917 7.79657 11.6469 8.29378 11.6469 8.80242C11.6469 9.48448 11.3681 10.1386 10.8717 10.6209C10.3753 11.1032 9.70201 11.3741 9 11.3741Z" fill="#008C67"/>
</svg>
