<svg width="60" height="45" viewBox="0 0 60 45" fill="none" xmlns="http://www.w3.org/2000/svg">
<path d="M50.4539 6.35454L52.2988 4.625H49.77H10.23H7.70122L9.54606 6.35454L27.1831 22.8892C27.1837 22.8898 27.1843 22.8903 27.1849 22.8909C27.559 23.2442 28.0006 23.5214 28.4825 23.7096C28.9651 23.8981 29.4806 23.9944 30 23.9944C30.5194 23.9944 31.0349 23.8981 31.5175 23.7096C31.9994 23.5214 32.441 23.2442 32.8152 22.8909C32.8157 22.8903 32.8163 22.8898 32.8169 22.8892L50.4539 6.35454ZM6.68394 8.86109L5 7.28239V9.59062V36.5625C5 37.5952 5.43819 38.5715 6.19474 39.2808C6.9491 39.988 7.95921 40.375 9 40.375H51C52.0408 40.375 53.0509 39.988 53.8053 39.2808C54.5618 38.5715 55 37.5952 55 36.5625V9.59062V7.28239L53.3161 8.86109L35.6765 25.3982C35.6764 25.3982 35.6764 25.3983 35.6763 25.3983C35.6762 25.3984 35.6761 25.3985 35.6761 25.3986C34.1803 26.7989 32.1398 27.5957 30 27.5957C27.8599 27.5957 25.8193 26.7987 24.3235 25.3982L6.68394 8.86109ZM9 1H51C53.1418 1 55.184 1.79826 56.68 3.20082C58.1739 4.60134 59 6.48654 59 8.4375V36.5625C59 38.5135 58.1739 40.3987 56.68 41.7992C55.184 43.2017 53.1418 44 51 44H9C6.85819 44 4.81605 43.2017 3.31998 41.7992C1.82609 40.3987 1 38.5135 1 36.5625V8.4375C1 6.48654 1.82609 4.60134 3.31998 3.20082C4.81605 1.79825 6.85819 1 9 1Z" fill="#008C67" stroke="white" stroke-width="2"/>
</svg>
