<svg width="18" height="14" viewBox="0 0 18 14" fill="none" xmlns="http://www.w3.org/2000/svg">
<path d="M15.3 0H2.7C1.98392 0 1.29716 0.266685 0.790812 0.741386C0.284464 1.21609 0 1.85992 0 2.53125V10.9688C0 11.6401 0.284464 12.2839 0.790812 12.7586C1.29716 13.2333 1.98392 13.5 2.7 13.5H15.3C16.0161 13.5 16.7028 13.2333 17.2092 12.7586C17.7155 12.2839 18 11.6401 18 10.9688V2.53125C18 1.85992 17.7155 1.21609 17.2092 0.741386C16.7028 0.266685 16.0161 0 15.3 0ZM14.931 1.6875L9.639 6.64875C9.55533 6.72783 9.45579 6.7906 9.34612 6.83344C9.23645 6.87628 9.11881 6.89833 9 6.89833C8.88119 6.89833 8.76355 6.87628 8.65388 6.83344C8.54421 6.7906 8.44467 6.72783 8.361 6.64875L3.069 1.6875H14.931ZM16.2 10.9688C16.2 11.1925 16.1052 11.4071 15.9364 11.5654C15.7676 11.7236 15.5387 11.8125 15.3 11.8125H2.7C2.46131 11.8125 2.23239 11.7236 2.0636 11.5654C1.89482 11.4071 1.8 11.1925 1.8 10.9688V2.87719L7.092 7.83844C7.59825 8.31246 8.2845 8.57871 9 8.57871C9.7155 8.57871 10.4017 8.31246 10.908 7.83844L16.2 2.87719V10.9688Z" fill="#008C67"/>
</svg>
