<svg width="18" height="18" viewBox="0 0 18 18" fill="none" xmlns="http://www.w3.org/2000/svg">
<path d="M15.769 9.92866C15.5702 9.92866 15.3625 9.86525 15.1638 9.81996C14.7614 9.73102 14.3659 9.61295 13.9805 9.46667C13.5615 9.31378 13.1009 9.32172 12.6874 9.48896C12.2738 9.65619 11.9366 9.97091 11.7405 10.3725L11.5418 10.7802C10.662 10.2894 9.85361 9.67976 9.13916 8.96844C8.42991 8.25191 7.82207 7.44113 7.33268 6.55881L7.71204 6.30517C8.1125 6.10852 8.4263 5.77028 8.59305 5.35553C8.7598 4.94079 8.76772 4.47885 8.61528 4.0586C8.47186 3.67127 8.35419 3.27484 8.26301 2.87191C8.21785 2.67261 8.18172 2.46426 8.15463 2.25591C8.04494 1.61783 7.7117 1.04 7.21491 0.626463C6.71812 0.212929 6.09044 -0.00912562 5.4449 0.000287436H2.73517C2.3459 -0.00337822 1.96041 0.0771177 1.60495 0.236295C1.24949 0.395473 0.932397 0.629594 0.675262 0.922722C0.418127 1.21585 0.226986 1.5611 0.114852 1.93497C0.00271758 2.30885 -0.0277778 2.70256 0.0254418 3.08932C0.506634 6.88437 2.2348 10.4105 4.93696 13.1107C7.63912 15.8109 11.1613 17.5312 14.947 18H15.2902C15.9563 18.001 16.5994 17.7559 17.0967 17.3115C17.3825 17.0552 17.6108 16.741 17.7665 16.3896C17.9222 16.0383 18.0017 15.6578 18 15.2733V12.5557C17.9889 11.9265 17.7604 11.3206 17.3536 10.8415C16.9467 10.3624 16.3866 10.0397 15.769 9.92866ZM16.2206 15.3639C16.2204 15.4925 16.1929 15.6196 16.14 15.7368C16.087 15.8539 16.0098 15.9584 15.9135 16.0433C15.8129 16.1312 15.6949 16.1968 15.5672 16.2358C15.4396 16.2748 15.3052 16.2864 15.1728 16.2698C11.7901 15.8348 8.64801 14.2827 6.2422 11.8584C3.8364 9.43414 2.30379 6.27558 1.88612 2.88097C1.87175 2.74827 1.88434 2.61403 1.92316 2.48636C1.96197 2.35869 2.02619 2.24023 2.11193 2.13815C2.19658 2.04152 2.30077 1.96408 2.41757 1.91097C2.53438 1.85787 2.66112 1.83032 2.78936 1.83015H5.49909C5.70914 1.82546 5.91424 1.89436 6.0791 2.02498C6.24396 2.1556 6.35827 2.33977 6.40233 2.54579C6.43846 2.7934 6.48363 3.03798 6.53782 3.27955C6.64216 3.75708 6.78103 4.22635 6.95331 4.68365L5.68877 5.27247C5.58065 5.32222 5.4834 5.3929 5.40259 5.48046C5.32178 5.56801 5.25901 5.67071 5.21789 5.78266C5.17676 5.8946 5.15809 6.0136 5.16295 6.1328C5.1678 6.252 5.19609 6.36907 5.24618 6.47728C6.54613 9.26987 8.78441 11.5147 11.5689 12.8184C11.7888 12.909 12.0354 12.909 12.2553 12.8184C12.368 12.778 12.4715 12.7155 12.5599 12.6347C12.6483 12.5538 12.7198 12.4561 12.7702 12.3473L13.3302 11.0791C13.7972 11.2466 14.2737 11.3857 14.7573 11.4958C14.9982 11.5502 15.2421 11.5955 15.489 11.6317C15.6944 11.6759 15.878 11.7905 16.0083 11.9559C16.1385 12.1212 16.2072 12.3269 16.2025 12.5376L16.2206 15.3639Z" fill="#008C67"/>
</svg>
