<svg width="18" height="18" viewBox="0 0 18 18" fill="none" xmlns="http://www.w3.org/2000/svg">
<path d="M9 0C7.21997 0 5.47991 0.527841 3.99987 1.51677C2.51983 2.50571 1.36628 3.91131 0.685088 5.55585C0.00389956 7.20038 -0.17433 9.00998 0.172937 10.7558C0.520203 12.5016 1.37737 14.1053 2.63604 15.364C3.89472 16.6226 5.49836 17.4798 7.24419 17.8271C8.99002 18.1743 10.7996 17.9961 12.4442 17.3149C14.0887 16.6337 15.4943 15.4802 16.4832 14.0001C17.4722 12.5201 18 10.78 18 9C18 7.8181 17.7672 6.64778 17.3149 5.55585C16.8626 4.46392 16.1997 3.47177 15.364 2.63604C14.5282 1.80031 13.5361 1.13738 12.4442 0.685084C11.3522 0.232792 10.1819 0 9 0ZM9 16.2C7.57598 16.2 6.18393 15.7777 4.9999 14.9866C3.81586 14.1954 2.89302 13.0709 2.34807 11.7553C1.80312 10.4397 1.66054 8.99201 1.93835 7.59535C2.21616 6.19869 2.9019 4.91577 3.90883 3.90883C4.91577 2.90189 6.19869 2.21616 7.59535 1.93835C8.99202 1.66053 10.4397 1.80312 11.7553 2.34807C13.071 2.89302 14.1954 3.81586 14.9866 4.99989C15.7777 6.18393 16.2 7.57597 16.2 9C16.2 10.9096 15.4414 12.7409 14.0912 14.0912C12.7409 15.4414 10.9096 16.2 9 16.2ZM9 3.6C8.76131 3.6 8.53239 3.69482 8.36361 3.8636C8.19482 4.03239 8.1 4.2613 8.1 4.5V8.478L6.21 9.567C6.03662 9.66525 5.90076 9.81826 5.82371 10.002C5.74665 10.1858 5.73278 10.39 5.78425 10.5825C5.83573 10.775 5.94964 10.945 6.10813 11.0658C6.26662 11.1866 6.46073 11.2514 6.66 11.25C6.81766 11.2511 6.97284 11.2107 7.11 11.133L9.45 9.783L9.531 9.702L9.675 9.585C9.71019 9.54044 9.74038 9.49215 9.765 9.441C9.79433 9.39268 9.81847 9.3414 9.837 9.288C9.86148 9.23077 9.87667 9.17001 9.882 9.108L9.9 9V4.5C9.9 4.2613 9.80518 4.03239 9.6364 3.8636C9.46762 3.69482 9.2387 3.6 9 3.6Z" fill="#008C67"/>
</svg>
