<svg width="36" height="25" viewBox="0 0 36 25" fill="none" xmlns="http://www.w3.org/2000/svg">
<path d="M34.2452 4.38661C34.0515 3.67146 33.6722 3.0194 33.1451 2.49572C32.6181 1.97204 31.9619 1.5951 31.2422 1.40262C29.2753 0.647549 10.2201 0.277612 4.69174 1.42374C3.97192 1.61628 3.31563 1.99335 2.7886 2.51719C2.26157 3.04103 1.88227 3.69326 1.6887 4.40857C0.800459 8.27939 0.73331 16.6477 1.7108 20.6055C1.9045 21.3207 2.28385 21.9727 2.81088 22.4964C3.33791 23.0201 3.99412 23.397 4.71384 23.5895C8.60936 24.4806 27.1291 24.6056 31.2643 23.5895C31.984 23.397 32.6402 23.0201 33.1672 22.4964C33.6943 21.9727 34.0736 21.3207 34.2673 20.6055C35.2142 16.3884 35.2814 8.53868 34.2452 4.38661V4.38661Z" stroke="#008C67" stroke-width="1.32222" stroke-linecap="round" stroke-linejoin="round"/>
<path d="M23.582 12.4956L14.7021 7.43555V17.5556L23.582 12.4956Z" stroke="#008C67" stroke-width="1.32222" stroke-linecap="round" stroke-linejoin="round"/>
</svg>
