<svg width="70" height="48" viewBox="0 0 70 48" fill="none" xmlns="http://www.w3.org/2000/svg">
<path d="M68.5342 7.66532C68.1379 6.24219 67.366 4.95377 66.3004 3.93701C65.2047 2.88898 63.8618 2.1393 62.3984 1.75873C56.9216 0.305573 34.9796 0.305573 34.9796 0.305573C25.8322 0.200807 16.6871 0.661596 7.59578 1.68534C6.13236 2.09403 4.79197 2.86045 3.6938 3.91646C2.61478 4.96156 1.83322 6.25032 1.42494 7.66238C0.444178 12.9811 -0.0323438 18.3816 0.00179988 23.791C-0.0331954 29.1956 0.442157 34.5943 1.42494 39.9196C1.82447 41.3258 2.60312 42.6087 3.68505 43.645C4.76699 44.6813 6.11431 45.4299 7.59578 45.8262C13.1454 47.2764 34.9796 47.2764 34.9796 47.2764C44.1386 47.3813 53.2954 46.9205 62.3984 45.8967C63.8618 45.5161 65.2047 44.7664 66.3004 43.7184C67.3656 42.7018 68.1367 41.4132 68.5313 39.9901C69.5377 34.6734 70.027 29.2707 69.9924 23.8585C70.0681 18.4234 69.5794 12.9952 68.5342 7.66238V7.66532ZM28.0039 33.8428V13.7422L46.2597 23.7939L28.0039 33.8428Z" fill="white"/>
</svg>
