<svg width="52" height="41" viewBox="0 0 52 41" fill="none" xmlns="http://www.w3.org/2000/svg">
<path d="M9.84746 35.4869C9.84746 38.0195 11.9506 40.094 14.5153 40.094C17.1219 40.094 19.1831 38.0192 19.1831 35.4869C19.1831 32.9542 17.08 30.8797 14.5153 30.8797C11.9506 30.8797 9.84746 32.9542 9.84746 35.4869ZM11.6531 35.4869C11.6531 33.9144 12.9609 32.663 14.5153 32.663C16.1107 32.663 17.3774 33.9139 17.3774 35.4869C17.3774 37.0593 16.0696 38.3108 14.5153 38.3108C12.9202 38.3108 11.6531 37.0192 11.6531 35.4869Z" fill="#008C67" stroke="#008C67" stroke-width="0.1"/>
<path d="M22.6609 35.4869C22.6609 38.0195 24.764 40.094 27.3287 40.094C29.8934 40.094 31.9965 38.0195 31.9965 35.4869C31.9965 32.9542 29.8934 30.8797 27.3287 30.8797C24.764 30.8797 22.6609 32.9542 22.6609 35.4869ZM24.4666 35.4869C24.4666 33.9144 25.7744 32.663 27.3287 32.663C28.8831 32.663 30.1909 33.9144 30.1909 35.4869C30.1909 37.0593 28.8831 38.3108 27.3287 38.3108C25.7337 38.3108 24.4666 37.0192 24.4666 35.4869Z" fill="#008C67" stroke="#008C67" stroke-width="0.1"/>
<path d="M1.02908 11.1921L1.02905 11.1921L1.02948 11.1939L4.60722 25.5633L4.60727 25.5635C5.36174 28.5418 8.00248 30.6097 11.1033 30.6511L11.1036 30.6511L20.9216 30.7332H20.922H21.0052L21.0468 30.7332L21.0472 30.7332L30.7404 30.6511L30.7407 30.6511C33.841 30.6097 36.5241 28.5422 37.2369 25.5629L41.5213 8.23954L41.5218 8.23779L42.5197 4.74981L42.5198 4.74952C42.8465 3.58079 43.9499 2.73328 45.2174 2.73328H50.1264C50.6094 2.73328 51.05 2.34354 51.05 1.82111C51.05 1.34127 50.6526 0.95 50.168 0.95H45.259C43.1983 0.95 41.3896 2.31951 40.8426 4.27096L40.0212 7.10834H4.28133C3.26798 7.10834 2.29667 7.56664 1.66298 8.35878C1.02877 9.15157 0.818275 10.1935 1.02908 11.1921ZM35.4757 25.1285L35.4757 25.1286C34.9404 27.282 32.9636 28.827 30.7394 28.8678C30.7393 28.8678 30.7392 28.8678 30.7391 28.8678L20.9224 28.9499H20.9216L11.1049 28.8678C8.83878 28.8272 6.90365 27.3231 6.36838 25.1288L6.36833 25.1286L2.79059 10.7592L2.7906 10.7592L2.79026 10.7579C2.67023 10.3236 2.78988 9.84706 3.07255 9.48841C3.35326 9.13223 3.7957 8.93268 4.28133 8.93268H39.5371L35.4757 25.1285Z" fill="#008C67" stroke="#008C67" stroke-width="0.1"/>
<path d="M33.6107 15.1557H27.9197V11.4286C27.9197 10.9503 27.5238 10.5164 26.9961 10.5164C26.4699 10.5164 26.0725 10.9077 26.0725 11.4286V15.1557H21.9707V11.4286C21.9707 10.9503 21.5748 10.5164 21.0471 10.5164C20.564 10.5164 20.1234 10.9061 20.1234 11.4286V15.1557H15.7305V11.4286C15.7305 10.9503 15.3346 10.5164 14.8068 10.5164C14.3238 10.5164 13.8832 10.9061 13.8832 11.4286V15.1557H8.10899C7.62595 15.1557 7.18535 15.5454 7.18535 16.0679C7.18535 16.5888 7.58278 16.98 8.10899 16.98H13.8832V20.7393H9.56504C9.082 20.7393 8.64141 21.129 8.64141 21.6514C8.64141 22.1723 9.03883 22.5636 9.56504 22.5636H13.9248V26.2907C13.9248 26.769 14.3207 27.2029 14.8484 27.2029C15.3315 27.2029 15.7721 26.8131 15.7721 26.2907V22.4815H20.165V26.2907C20.165 26.769 20.5609 27.2029 21.0887 27.2029C21.5717 27.2029 22.0123 26.8131 22.0123 26.2907V22.4815H26.1141V26.2907C26.1141 26.769 26.5099 27.2029 27.0377 27.2029C27.5639 27.2029 27.9613 26.8116 27.9613 26.2907V22.4815H32.2379C32.7209 22.4815 33.1615 22.0917 33.1615 21.5693C33.1615 21.0484 32.7641 20.6571 32.2379 20.6571H27.9197V16.8979H33.6107C34.0938 16.8979 34.5344 16.5082 34.5344 15.9857C34.5344 15.457 34.0867 15.1557 33.6107 15.1557ZM15.7305 20.6982V16.939H20.1234V20.6982H15.7305ZM26.0725 20.6982H21.9707V16.939H26.0725V20.6982Z" fill="#008C67" stroke="#008C67" stroke-width="0.1"/>
</svg>
